G04*
G04 #@! TF.GenerationSoftware,Altium Limited,Altium Designer,19.0.15 (446)*
G04*
G04 Layer_Color=16711935*
%FSLAX44Y44*%
%MOMM*%
G71*
G01*
G75*
%ADD35R,2.1000X2.1000*%
%ADD55R,1.8000X2.2000*%
%ADD56O,1.8000X2.2000*%
%ADD57R,1.9000X1.9000*%
%ADD58C,1.9000*%
G04:AMPARAMS|DCode=59|XSize=2.2mm|YSize=1.4mm|CornerRadius=0.46mm|HoleSize=0mm|Usage=FLASHONLY|Rotation=0.000|XOffset=0mm|YOffset=0mm|HoleType=Round|Shape=RoundedRectangle|*
%AMROUNDEDRECTD59*
21,1,2.2000,0.4800,0,0,0.0*
21,1,1.2800,1.4000,0,0,0.0*
1,1,0.9200,0.6400,-0.2400*
1,1,0.9200,-0.6400,-0.2400*
1,1,0.9200,-0.6400,0.2400*
1,1,0.9200,0.6400,0.2400*
%
%ADD59ROUNDEDRECTD59*%
%ADD60C,4.2000*%
%ADD61C,3.4000*%
%ADD62R,2.2000X1.8000*%
%ADD63O,2.2000X1.8000*%
%ADD64C,2.1000*%
%ADD65R,2.1000X2.1000*%
%ADD66C,7.6000*%
D35*
X245500Y82500D02*
D03*
D55*
X279400Y25400D02*
D03*
X116200Y88000D02*
D03*
X416560Y508000D02*
D03*
X635000D02*
D03*
X508000Y25400D02*
D03*
X626500Y201930D02*
D03*
D56*
X304800Y25400D02*
D03*
X330200D02*
D03*
X355600D02*
D03*
X381000D02*
D03*
X406400D02*
D03*
X431800D02*
D03*
X457200D02*
D03*
X141600Y88000D02*
D03*
X167000D02*
D03*
X391160Y508000D02*
D03*
X365760D02*
D03*
X340360D02*
D03*
X314960D02*
D03*
X289560D02*
D03*
X264160D02*
D03*
X238760D02*
D03*
X213360D02*
D03*
X187960D02*
D03*
X609600D02*
D03*
X584200D02*
D03*
X558800D02*
D03*
X533400D02*
D03*
X508000D02*
D03*
X482600D02*
D03*
X457200D02*
D03*
X533400Y25400D02*
D03*
X558800D02*
D03*
X584200D02*
D03*
X609600D02*
D03*
X635000D02*
D03*
X296300Y125730D02*
D03*
X321700D02*
D03*
X347100D02*
D03*
X372500D02*
D03*
X397900D02*
D03*
X423300D02*
D03*
X448700D02*
D03*
X474100D02*
D03*
X499500D02*
D03*
X524900D02*
D03*
X550300D02*
D03*
X575700D02*
D03*
X601100D02*
D03*
X626500D02*
D03*
X296300Y201930D02*
D03*
X321700D02*
D03*
X347100D02*
D03*
X372500D02*
D03*
X397900D02*
D03*
X423300D02*
D03*
X448700D02*
D03*
X474100D02*
D03*
X499500D02*
D03*
X524900D02*
D03*
X550300D02*
D03*
X575700D02*
D03*
X601100D02*
D03*
D57*
X25400Y387300D02*
D03*
X50800Y342000D02*
D03*
X25400Y473740D02*
D03*
D58*
X50800Y387300D02*
D03*
X76200D02*
D03*
X25400Y412700D02*
D03*
X50800D02*
D03*
X76200D02*
D03*
X25400Y342000D02*
D03*
X50800Y316600D02*
D03*
X25400D02*
D03*
X76200Y499140D02*
D03*
X50800D02*
D03*
X25400D02*
D03*
X76200Y473740D02*
D03*
X50800D02*
D03*
D59*
X21995Y234000D02*
D03*
Y168000D02*
D03*
D60*
X21000Y134000D02*
D03*
Y27000D02*
D03*
D61*
X152400Y508000D02*
D03*
D62*
X146000Y446000D02*
D03*
X662000Y469000D02*
D03*
D63*
X146000Y420600D02*
D03*
Y395200D02*
D03*
Y369800D02*
D03*
X662000Y418200D02*
D03*
Y443600D02*
D03*
D64*
X668500Y307500D02*
D03*
X603500D02*
D03*
Y262500D02*
D03*
X200500Y82500D02*
D03*
Y17500D02*
D03*
X245500D02*
D03*
D65*
X668500Y262500D02*
D03*
D66*
X660400Y76200D02*
D03*
X139700Y25400D02*
D03*
X660400Y358000D02*
D03*
M02*
