G04*
G04 #@! TF.GenerationSoftware,Altium Limited,Altium Designer,19.0.15 (446)*
G04*
G04 Layer_Color=8388736*
%FSLAX44Y44*%
%MOMM*%
G71*
G01*
G75*
%ADD33R,1.4500X0.5000*%
%ADD34R,1.6000X1.8000*%
%ADD35R,2.1000X2.1000*%
%ADD36R,1.8000X3.2000*%
%ADD37R,3.7000X2.4000*%
%ADD38R,0.8000X2.4000*%
%ADD39R,1.2000X0.7500*%
%ADD40R,0.7500X1.2000*%
%ADD41C,3.0480*%
%ADD42R,1.5000X1.1000*%
%ADD43R,1.1000X1.5000*%
%ADD44R,0.7588X0.8858*%
%ADD45R,0.8858X0.7588*%
%ADD46R,2.8000X2.7000*%
%ADD47R,2.7000X2.8000*%
%ADD48R,1.0000X1.0000*%
%ADD49R,2.9000X2.2000*%
%ADD50R,0.6700X1.6200*%
%ADD51R,1.6200X0.6700*%
%ADD52R,1.5000X0.9000*%
%ADD53R,0.9000X1.5000*%
%ADD54R,1.1000X0.8000*%
%ADD55R,1.8000X2.2000*%
%ADD56O,1.8000X2.2000*%
%ADD57R,1.9000X1.9000*%
%ADD58C,1.9000*%
G04:AMPARAMS|DCode=59|XSize=2.2mm|YSize=1.4mm|CornerRadius=0.46mm|HoleSize=0mm|Usage=FLASHONLY|Rotation=0.000|XOffset=0mm|YOffset=0mm|HoleType=Round|Shape=RoundedRectangle|*
%AMROUNDEDRECTD59*
21,1,2.2000,0.4800,0,0,0.0*
21,1,1.2800,1.4000,0,0,0.0*
1,1,0.9200,0.6400,-0.2400*
1,1,0.9200,-0.6400,-0.2400*
1,1,0.9200,-0.6400,0.2400*
1,1,0.9200,0.6400,0.2400*
%
%ADD59ROUNDEDRECTD59*%
%ADD60C,4.2000*%
%ADD61C,3.4000*%
%ADD62R,2.2000X1.8000*%
%ADD63O,2.2000X1.8000*%
%ADD64C,2.1000*%
%ADD65R,2.1000X2.1000*%
%ADD66C,7.6000*%
D33*
X48745Y214000D02*
D03*
Y207500D02*
D03*
Y201000D02*
D03*
Y194500D02*
D03*
Y188000D02*
D03*
D34*
X46495Y233000D02*
D03*
Y169000D02*
D03*
D35*
X21995Y213000D02*
D03*
Y189000D02*
D03*
X245500Y82500D02*
D03*
D36*
X72000Y96500D02*
D03*
Y137500D02*
D03*
Y18500D02*
D03*
Y59500D02*
D03*
D37*
X162000Y178000D02*
D03*
D38*
X187400Y116000D02*
D03*
X174700D02*
D03*
X162000D02*
D03*
X149300D02*
D03*
X136600D02*
D03*
D39*
X194500Y430500D02*
D03*
Y449500D02*
D03*
X167500Y430500D02*
D03*
Y440000D02*
D03*
Y449500D02*
D03*
X230500Y140500D02*
D03*
Y159500D02*
D03*
X203500Y140500D02*
D03*
Y150000D02*
D03*
Y159500D02*
D03*
D40*
X652500Y146000D02*
D03*
X671500D02*
D03*
X652500Y172999D02*
D03*
X662000D02*
D03*
X671500D02*
D03*
X70500Y276500D02*
D03*
X51500D02*
D03*
X70500Y249500D02*
D03*
X61000D02*
D03*
X51500D02*
D03*
D41*
X102000Y520000D02*
D03*
X668000Y511000D02*
D03*
X669000Y20000D02*
D03*
X226000Y43000D02*
D03*
D42*
X200500Y196500D02*
D03*
Y177500D02*
D03*
X445000Y77500D02*
D03*
Y58500D02*
D03*
X197000Y215500D02*
D03*
Y234500D02*
D03*
X115000Y133500D02*
D03*
Y114500D02*
D03*
X209000Y121500D02*
D03*
Y102500D02*
D03*
X218000Y215500D02*
D03*
Y234500D02*
D03*
X217000Y308500D02*
D03*
Y289500D02*
D03*
X174402Y229876D02*
D03*
Y210876D02*
D03*
X23000Y433500D02*
D03*
Y452500D02*
D03*
X637001Y470500D02*
D03*
Y451500D02*
D03*
X304800Y46500D02*
D03*
Y65500D02*
D03*
X355600Y46500D02*
D03*
Y65500D02*
D03*
X213360Y447880D02*
D03*
Y428880D02*
D03*
X224000Y177500D02*
D03*
Y196500D02*
D03*
X648750Y209000D02*
D03*
Y190000D02*
D03*
X234160Y102714D02*
D03*
Y121713D02*
D03*
D43*
X486500Y53000D02*
D03*
X467500D02*
D03*
X155450Y227970D02*
D03*
X136450D02*
D03*
X606500Y342000D02*
D03*
X587500D02*
D03*
X467500Y76200D02*
D03*
X486500D02*
D03*
X263500Y484000D02*
D03*
X244500D02*
D03*
X404500Y76200D02*
D03*
X423500D02*
D03*
X241000Y230000D02*
D03*
X260000D02*
D03*
X240500Y337000D02*
D03*
X259500D02*
D03*
X21000Y522000D02*
D03*
X40000D02*
D03*
X382500Y49000D02*
D03*
X401500D02*
D03*
X470500Y229000D02*
D03*
X451500D02*
D03*
X423500Y99000D02*
D03*
X404500D02*
D03*
X443500D02*
D03*
X462500D02*
D03*
X451500Y252000D02*
D03*
X470500D02*
D03*
X422500D02*
D03*
X403500D02*
D03*
X653500Y127000D02*
D03*
X672500D02*
D03*
X49500Y294000D02*
D03*
X68500D02*
D03*
X92500Y232000D02*
D03*
X111500D02*
D03*
D44*
X604808Y243000D02*
D03*
X629192D02*
D03*
D45*
X9000Y296192D02*
D03*
Y271808D02*
D03*
D46*
X250000Y307500D02*
D03*
Y258500D02*
D03*
D47*
X414500Y284000D02*
D03*
X463500D02*
D03*
D48*
X247500Y410000D02*
D03*
X232500D02*
D03*
X248500Y392000D02*
D03*
X233500D02*
D03*
X234524Y446660D02*
D03*
X249523D02*
D03*
X605500Y361000D02*
D03*
X590500D02*
D03*
D49*
X20000Y65000D02*
D03*
Y97000D02*
D03*
D50*
X182000Y258000D02*
D03*
X174000D02*
D03*
X166000D02*
D03*
X158000D02*
D03*
X150000D02*
D03*
X142000D02*
D03*
X134000D02*
D03*
X126000D02*
D03*
Y342000D02*
D03*
X134000D02*
D03*
X142000D02*
D03*
X150000D02*
D03*
X158000D02*
D03*
X166000D02*
D03*
X174000D02*
D03*
X182000D02*
D03*
D51*
X112000Y272000D02*
D03*
Y280000D02*
D03*
Y288000D02*
D03*
Y296000D02*
D03*
Y304000D02*
D03*
Y312000D02*
D03*
Y320000D02*
D03*
Y328000D02*
D03*
X196000D02*
D03*
Y320000D02*
D03*
Y312000D02*
D03*
Y304000D02*
D03*
Y296000D02*
D03*
Y288000D02*
D03*
Y280000D02*
D03*
Y272000D02*
D03*
D52*
X172000Y395200D02*
D03*
Y414200D02*
D03*
X90040Y259500D02*
D03*
Y278500D02*
D03*
X217000Y272000D02*
D03*
Y253000D02*
D03*
X607000Y451500D02*
D03*
Y470500D02*
D03*
X582000Y451500D02*
D03*
Y470500D02*
D03*
X636000Y413500D02*
D03*
Y432500D02*
D03*
X330000Y82500D02*
D03*
Y63500D02*
D03*
Y64000D02*
D03*
Y45000D02*
D03*
X671000Y189500D02*
D03*
Y208500D02*
D03*
X670000Y242500D02*
D03*
Y223500D02*
D03*
X272000Y72500D02*
D03*
Y53500D02*
D03*
X29000Y275500D02*
D03*
Y294500D02*
D03*
X250000Y140500D02*
D03*
Y159500D02*
D03*
X649000Y243500D02*
D03*
Y224500D02*
D03*
D53*
X264500Y412000D02*
D03*
X283500D02*
D03*
X265500Y389000D02*
D03*
X284500D02*
D03*
X135500Y205000D02*
D03*
X154500D02*
D03*
X100500Y357000D02*
D03*
X81500D02*
D03*
X89500Y209000D02*
D03*
X108500D02*
D03*
X89500Y187000D02*
D03*
X108500D02*
D03*
X109000Y165000D02*
D03*
X90000D02*
D03*
X386500Y99000D02*
D03*
X367500D02*
D03*
X609500Y226000D02*
D03*
X628500D02*
D03*
X402500Y229000D02*
D03*
X421500D02*
D03*
X232523Y428000D02*
D03*
X251523D02*
D03*
X606000Y381000D02*
D03*
X587000D02*
D03*
X286500Y92000D02*
D03*
X267500D02*
D03*
X11500Y253000D02*
D03*
X30500D02*
D03*
D54*
X73000Y206500D02*
D03*
Y221500D02*
D03*
Y192500D02*
D03*
Y177500D02*
D03*
D55*
X279400Y25400D02*
D03*
X116200Y88000D02*
D03*
X416560Y508000D02*
D03*
X635000D02*
D03*
X508000Y25400D02*
D03*
X626500Y201930D02*
D03*
D56*
X304800Y25400D02*
D03*
X330200D02*
D03*
X355600D02*
D03*
X381000D02*
D03*
X406400D02*
D03*
X431800D02*
D03*
X457200D02*
D03*
X141600Y88000D02*
D03*
X167000D02*
D03*
X391160Y508000D02*
D03*
X365760D02*
D03*
X340360D02*
D03*
X314960D02*
D03*
X289560D02*
D03*
X264160D02*
D03*
X238760D02*
D03*
X213360D02*
D03*
X187960D02*
D03*
X609600D02*
D03*
X584200D02*
D03*
X558800D02*
D03*
X533400D02*
D03*
X508000D02*
D03*
X482600D02*
D03*
X457200D02*
D03*
X533400Y25400D02*
D03*
X558800D02*
D03*
X584200D02*
D03*
X609600D02*
D03*
X635000D02*
D03*
X296300Y125730D02*
D03*
X321700D02*
D03*
X347100D02*
D03*
X372500D02*
D03*
X397900D02*
D03*
X423300D02*
D03*
X448700D02*
D03*
X474100D02*
D03*
X499500D02*
D03*
X524900D02*
D03*
X550300D02*
D03*
X575700D02*
D03*
X601100D02*
D03*
X626500D02*
D03*
X296300Y201930D02*
D03*
X321700D02*
D03*
X347100D02*
D03*
X372500D02*
D03*
X397900D02*
D03*
X423300D02*
D03*
X448700D02*
D03*
X474100D02*
D03*
X499500D02*
D03*
X524900D02*
D03*
X550300D02*
D03*
X575700D02*
D03*
X601100D02*
D03*
D57*
X25400Y387300D02*
D03*
X50800Y342000D02*
D03*
X25400Y473740D02*
D03*
D58*
X50800Y387300D02*
D03*
X76200D02*
D03*
X25400Y412700D02*
D03*
X50800D02*
D03*
X76200D02*
D03*
X25400Y342000D02*
D03*
X50800Y316600D02*
D03*
X25400D02*
D03*
X76200Y499140D02*
D03*
X50800D02*
D03*
X25400D02*
D03*
X76200Y473740D02*
D03*
X50800D02*
D03*
D59*
X21995Y234000D02*
D03*
Y168000D02*
D03*
D60*
X21000Y134000D02*
D03*
Y27000D02*
D03*
D61*
X152400Y508000D02*
D03*
D62*
X146000Y446000D02*
D03*
X662000Y469000D02*
D03*
D63*
X146000Y420600D02*
D03*
Y395200D02*
D03*
Y369800D02*
D03*
X662000Y418200D02*
D03*
Y443600D02*
D03*
D64*
X668500Y307500D02*
D03*
X603500D02*
D03*
Y262500D02*
D03*
X200500Y82500D02*
D03*
Y17500D02*
D03*
X245500D02*
D03*
D65*
X668500Y262500D02*
D03*
D66*
X660400Y76200D02*
D03*
X139700Y25400D02*
D03*
X660400Y358000D02*
D03*
M02*
