G04*
G04 #@! TF.GenerationSoftware,Altium Limited,Altium Designer,19.0.15 (446)*
G04*
G04 Layer_Color=65535*
%FSLAX44Y44*%
%MOMM*%
G71*
G01*
G75*
%ADD10C,0.2000*%
%ADD11C,0.4000*%
D10*
X125534Y533441D02*
G03*
X184427Y489473I26866J-25441D01*
G01*
X639200Y170180D02*
G03*
X639200Y157480I0J-6350D01*
G01*
X264160Y12700D02*
X472440D01*
Y38100D01*
X264160D02*
X472440D01*
X264160Y12700D02*
Y38100D01*
X12697Y375000D02*
Y425000D01*
Y375000D02*
X88897D01*
X12697Y425000D02*
X88897D01*
Y375000D02*
Y425000D01*
X63502Y304300D02*
Y354300D01*
X12700D02*
X63502D01*
X12700Y304300D02*
X63502D01*
X12700D02*
Y354300D01*
X33370Y240000D02*
X37370D01*
X-4630D02*
X10370D01*
X-4630Y162000D02*
Y240000D01*
X33370Y162000D02*
X37370D01*
X51370Y218000D02*
Y222000D01*
Y180000D02*
Y184000D01*
X-4630Y162000D02*
X10370D01*
X370Y239000D02*
X1370Y240000D01*
X370Y162000D02*
Y239000D01*
X7370Y162000D02*
Y240000D01*
X-10630Y145000D02*
Y240000D01*
X-18630Y145000D02*
X-10630D01*
Y240000D02*
Y257000D01*
X-18630D02*
X-10630D01*
X-18630Y201000D02*
X-10630D01*
X-14630Y205000D02*
X-10630Y201000D01*
X-14630Y197000D02*
X-10630Y201000D01*
Y236000D02*
X-7630D01*
X-10630Y168000D02*
X-7630D01*
X179700Y75300D02*
Y98500D01*
X103500Y75300D02*
X179700D01*
X103500D02*
Y100700D01*
X179700D01*
Y98500D02*
Y100700D01*
X133300Y357100D02*
Y458700D01*
Y357100D02*
X158700D01*
Y458700D01*
X133300D02*
X158700D01*
X172720Y520700D02*
X431800D01*
X172720Y495300D02*
Y520700D01*
Y495300D02*
X431800D01*
Y520700D01*
X441960D02*
X650240D01*
X441960Y495300D02*
Y520700D01*
Y495300D02*
X650240D01*
Y520700D01*
X492760Y12700D02*
X650240D01*
Y38100D01*
X492760D02*
X650240D01*
X492760Y12700D02*
Y38100D01*
X672500Y405500D02*
X674700D01*
Y481700D01*
X649300D02*
X674700D01*
X649300Y405500D02*
Y481700D01*
Y405500D02*
X672500D01*
X94500Y94500D02*
X99500Y99500D01*
Y144500D01*
X54500Y89500D02*
X59500D01*
X44500Y99500D02*
X54500Y89500D01*
X44500Y99500D02*
Y144500D01*
X89500Y89500D02*
X94500Y94500D01*
X84500Y89500D02*
X89500D01*
X44500Y144500D02*
X59500D01*
X84500D02*
X99500D01*
X94500Y16500D02*
X99500Y21500D01*
Y66500D01*
X54500Y11500D02*
X59500D01*
X44500Y21500D02*
X54500Y11500D01*
X44500Y21500D02*
Y66500D01*
X89500Y11500D02*
X94500Y16500D01*
X84500Y11500D02*
X89500D01*
X44500Y66500D02*
X59500D01*
X84500D02*
X99500D01*
X88897Y461440D02*
Y511440D01*
X12697D02*
X88897D01*
X12697Y461440D02*
X88897D01*
X12697D02*
Y511440D01*
X193000Y128000D02*
X196000D01*
X128000D02*
X131000D01*
X128000Y166000D02*
X140000D01*
X184000D02*
X196000D01*
X128000Y128000D02*
Y166000D01*
X196000Y128000D02*
Y166000D01*
X283600Y138018D02*
Y151111D01*
Y177299D02*
Y190392D01*
Y111830D02*
Y138018D01*
Y190392D02*
Y216580D01*
X540300Y215830D02*
X565025Y216017D01*
X614475Y216393D02*
X639200Y216580D01*
X473625Y215830D02*
X495850D01*
X406950D02*
X429175D01*
X495850D02*
X540300D01*
X362500D02*
X406950D01*
X565025Y216017D02*
X614475Y216393D01*
X283600Y216580D02*
X362500Y215830D01*
X429175D02*
X473625D01*
X283600Y151111D02*
Y177299D01*
Y111830D02*
X639200D01*
Y157480D01*
Y170180D02*
Y216580D01*
X618000Y315000D02*
X653000D01*
X605999Y275000D02*
Y293000D01*
X666000Y275000D02*
Y295000D01*
X618000Y255000D02*
X654000D01*
X193000Y32000D02*
Y67000D01*
X215000Y20000D02*
X233000D01*
X213000Y80000D02*
X233000D01*
X253000Y32000D02*
Y68000D01*
X190000Y436000D02*
Y444000D01*
X172000Y456000D02*
X190000D01*
X172000Y424000D02*
X190000D01*
X658000Y150500D02*
X666000D01*
X678000D02*
Y168500D01*
X646000Y150500D02*
Y168500D01*
X226000Y146000D02*
Y154000D01*
X208000Y166000D02*
X226000D01*
X208000Y134000D02*
X226000D01*
X57000Y272000D02*
X65000D01*
X45000Y254000D02*
Y272000D01*
X77000Y254000D02*
Y272000D01*
X208120Y169220D02*
X210660D01*
Y204780D01*
X199330D02*
X210660D01*
X190340Y169220D02*
Y185590D01*
Y169220D02*
X208120D01*
X190340Y185590D02*
Y204780D01*
X199330D01*
X459220Y42840D02*
Y45380D01*
Y42840D02*
X494780D01*
Y54170D01*
X459220Y63160D02*
X475590D01*
X459220Y45380D02*
Y63160D01*
X475590D02*
X494780D01*
Y54170D02*
Y63160D01*
X452620Y50220D02*
X455160D01*
Y85780D01*
X443830D02*
X455160D01*
X434840Y50220D02*
Y66590D01*
Y50220D02*
X452620D01*
X434840Y66590D02*
Y85780D01*
X443830D01*
X186840Y242780D02*
X195830D01*
X186840Y223590D02*
Y242780D01*
Y207220D02*
X204620D01*
X186840D02*
Y223590D01*
X195830Y242780D02*
X207160D01*
Y207220D02*
Y242780D01*
X204620Y207220D02*
X207160D01*
X128170Y217810D02*
Y226800D01*
Y217810D02*
X147360D01*
X163731D02*
Y235590D01*
X147360Y217810D02*
X163731D01*
X128170Y226800D02*
Y238130D01*
X163731D01*
Y235590D02*
Y238130D01*
X116170Y106220D02*
X125160D01*
Y125410D01*
X107380Y141780D02*
X125160D01*
Y125410D02*
Y141780D01*
X104840Y106220D02*
X116170D01*
X104840D02*
Y141780D01*
X107380D01*
X210170Y94220D02*
X219160D01*
Y113410D01*
X201380Y129780D02*
X219160D01*
Y113410D02*
Y129780D01*
X198840Y94220D02*
X210170D01*
X198840D02*
Y129780D01*
X201380D01*
X579220Y331840D02*
Y340830D01*
Y331840D02*
X598410D01*
X614780D02*
Y349620D01*
X598410Y331840D02*
X614780D01*
X579220Y340830D02*
Y352160D01*
X614780D01*
Y349620D02*
Y352160D01*
X494780Y77370D02*
Y86360D01*
X475590D02*
X494780D01*
X459220Y68580D02*
Y86360D01*
X475590D01*
X494780Y66040D02*
Y77370D01*
X459220Y66040D02*
X494780D01*
X459220D02*
Y68580D01*
X236220Y473840D02*
Y482830D01*
Y473840D02*
X255410D01*
X271780D02*
Y491620D01*
X255410Y473840D02*
X271780D01*
X236220Y482830D02*
Y494160D01*
X271780D01*
Y491620D02*
Y494160D01*
X431780Y77370D02*
Y86360D01*
X412590D02*
X431780D01*
X396220Y68580D02*
Y86360D01*
X412590D01*
X431780Y66040D02*
Y77370D01*
X396220Y66040D02*
X431780D01*
X396220D02*
Y68580D01*
X599000Y236000D02*
X635000D01*
Y250000D01*
X599000D02*
X635000D01*
X2000Y266000D02*
Y302000D01*
Y266000D02*
X16000D01*
Y302000D01*
X207840Y242780D02*
X210380D01*
X207840Y207220D02*
Y242780D01*
Y207220D02*
X219170D01*
X228160Y226410D02*
Y242780D01*
X210380D02*
X228160D01*
Y207220D02*
Y226410D01*
X219170Y207220D02*
X228160D01*
X224620Y281220D02*
X227160D01*
Y316780D01*
X215830D02*
X227160D01*
X206840Y281220D02*
Y297590D01*
Y281220D02*
X224620D01*
X206840Y297590D02*
Y316780D01*
X215830D01*
X182022Y202596D02*
X184562D01*
Y238156D01*
X173232D02*
X184562D01*
X164242Y202596D02*
Y218966D01*
Y202596D02*
X182022D01*
X164242Y218966D02*
Y238156D01*
X173232D01*
X12840Y460780D02*
X15380D01*
X12840Y425220D02*
Y460780D01*
Y425220D02*
X24170D01*
X33160Y444410D02*
Y460780D01*
X15380D02*
X33160D01*
Y425220D02*
Y444410D01*
X24170Y425220D02*
X33160D01*
X268280Y237620D02*
Y240160D01*
X232720D02*
X268280D01*
X232720Y228830D02*
Y240160D01*
X251910Y219840D02*
X268280D01*
Y237620D01*
X232720Y219840D02*
X251910D01*
X232720D02*
Y228830D01*
X267780Y344620D02*
Y347160D01*
X232220D02*
X267780D01*
X232220Y335830D02*
Y347160D01*
X251410Y326840D02*
X267780D01*
Y344620D01*
X232220Y326840D02*
X251410D01*
X232220D02*
Y335830D01*
X644621Y443220D02*
X647160D01*
Y478780D01*
X635830D02*
X647160D01*
X626841Y443220D02*
Y459590D01*
Y443220D02*
X644621D01*
X626841Y459590D02*
Y478780D01*
X635830D01*
X48280Y529620D02*
Y532160D01*
X12720D02*
X48280D01*
X12720Y520830D02*
Y532160D01*
X31910Y511840D02*
X48280D01*
Y529620D01*
X12720Y511840D02*
X31910D01*
X12720D02*
Y520830D01*
X409780Y56620D02*
Y59160D01*
X374220D02*
X409780D01*
X374220Y47830D02*
Y59160D01*
X393410Y38840D02*
X409780D01*
Y56620D01*
X374220Y38840D02*
X393410D01*
X374220D02*
Y47830D01*
X294640Y73780D02*
X297180D01*
X294640Y38220D02*
Y73780D01*
Y38220D02*
X305970D01*
X314960Y57410D02*
Y73780D01*
X297180D02*
X314960D01*
Y38220D02*
Y57410D01*
X305970Y38220D02*
X314960D01*
X345440Y73780D02*
X347980D01*
X345440Y38220D02*
Y73780D01*
Y38220D02*
X356770D01*
X365760Y57410D02*
Y73780D01*
X347980D02*
X365760D01*
Y38220D02*
Y57410D01*
X356770Y38220D02*
X365760D01*
X443220Y218840D02*
Y221380D01*
Y218840D02*
X478780D01*
Y230170D01*
X443220Y239160D02*
X459590D01*
X443220Y221380D02*
Y239160D01*
X459590D02*
X478780D01*
Y230170D02*
Y239160D01*
X396220Y88840D02*
Y91380D01*
Y88840D02*
X431780D01*
Y100170D01*
X396220Y109160D02*
X412590D01*
X396220Y91380D02*
Y109160D01*
X412590D02*
X431780D01*
Y100170D02*
Y109160D01*
X470780Y106620D02*
Y109160D01*
X435220D02*
X470780D01*
X435220Y97830D02*
Y109160D01*
X454410Y88840D02*
X470780D01*
Y106620D01*
X435220Y88840D02*
X454410D01*
X435220D02*
Y97830D01*
X478780Y259620D02*
Y262160D01*
X443220D02*
X478780D01*
X443220Y250830D02*
Y262160D01*
X462410Y241840D02*
X478780D01*
Y259620D01*
X443220Y241840D02*
X462410D01*
X443220D02*
Y250830D01*
X395220Y241840D02*
Y244380D01*
Y241840D02*
X430780D01*
Y253170D01*
X395220Y262160D02*
X411590D01*
X395220Y244380D02*
Y262160D01*
X411590D02*
X430780D01*
Y253170D02*
Y262160D01*
X220980Y420600D02*
X223520D01*
Y456160D01*
X212190D02*
X223520D01*
X203200Y420600D02*
Y436970D01*
Y420600D02*
X220980D01*
X203200Y436970D02*
Y456160D01*
X212190D01*
X680780Y134620D02*
Y137160D01*
X645220D02*
X680780D01*
X645220Y125830D02*
Y137160D01*
X664410Y116840D02*
X680780D01*
Y134620D01*
X645220Y116840D02*
X664410D01*
X645220D02*
Y125830D01*
X213840Y204780D02*
X216380D01*
X213840Y169220D02*
Y204780D01*
Y169220D02*
X225170D01*
X234160Y188410D02*
Y204780D01*
X216380D02*
X234160D01*
Y169220D02*
Y188410D01*
X225170Y169220D02*
X234160D01*
X76780Y301620D02*
Y304160D01*
X41220D02*
X76780D01*
X41220Y292830D02*
Y304160D01*
X60410Y283840D02*
X76780D01*
Y301620D01*
X41220Y283840D02*
X60410D01*
X41220D02*
Y292830D01*
X656370Y181720D02*
X658910D01*
Y217280D01*
X647580D02*
X658910D01*
X638590Y181720D02*
Y198090D01*
Y181720D02*
X656370D01*
X638590Y198090D02*
Y217280D01*
X647580D01*
X224000Y129994D02*
X226540D01*
X224000Y94434D02*
Y129994D01*
Y94434D02*
X235330D01*
X244320Y113624D02*
Y129994D01*
X226540D02*
X244320D01*
Y94434D02*
Y113624D01*
X235330Y94434D02*
X244320D01*
X119780Y239620D02*
Y242160D01*
X84220D02*
X119780D01*
X84220Y230830D02*
Y242160D01*
X103410Y221840D02*
X119780D01*
Y239620D01*
X84220Y221840D02*
X103410D01*
X84220D02*
Y230830D01*
X231000Y242000D02*
Y324000D01*
Y242000D02*
X269000D01*
Y324000D01*
X231000D02*
X269000D01*
X398000Y265000D02*
X480000D01*
Y303000D01*
X398000D02*
X480000D01*
X398000Y265000D02*
Y303000D01*
X222220Y403000D02*
X224760D01*
X222220Y417000D02*
X224760D01*
X222220Y403000D02*
Y417000D01*
X224760Y403000D02*
Y417000D01*
X255000D01*
Y403000D02*
Y417000D01*
X224760Y403000D02*
X255000D01*
X223220Y385000D02*
X225760D01*
X223220Y399000D02*
X225760D01*
X223220Y385000D02*
Y399000D01*
X225760Y385000D02*
Y399000D01*
X256000D01*
Y385000D02*
Y399000D01*
X225760Y385000D02*
X256000D01*
X257264Y453660D02*
X259804D01*
X257264Y439660D02*
X259804D01*
Y453660D01*
X257264Y439660D02*
Y453660D01*
X227023Y439660D02*
X257264D01*
X227023D02*
Y453660D01*
X257264D01*
X580220Y354000D02*
X582760D01*
X580220Y368000D02*
X582760D01*
X580220Y354000D02*
Y368000D01*
X582760Y354000D02*
Y368000D01*
X613000D01*
Y354000D02*
Y368000D01*
X582760Y354000D02*
X613000D01*
X36000Y52000D02*
Y110000D01*
X4000Y52000D02*
X36000D01*
X4000D02*
Y110000D01*
X36000D01*
X188000Y264000D02*
X190000Y266000D01*
X119000Y265000D02*
Y267000D01*
Y265000D02*
X121000D01*
X119000Y335000D02*
X121000D01*
X119000Y333000D02*
Y335000D01*
X187000D02*
X189000D01*
Y333000D02*
Y335000D01*
X182160Y388190D02*
Y421210D01*
X161840D02*
X182160D01*
X161840Y388190D02*
Y421210D01*
Y388190D02*
X182160D01*
X257490Y401840D02*
X290510D01*
Y422160D01*
X257490D02*
X290510D01*
X257490Y401840D02*
Y422160D01*
X258490Y378840D02*
X291510D01*
Y399160D01*
X258490D02*
X291510D01*
X258490Y378840D02*
Y399160D01*
X128490Y194840D02*
X161510D01*
Y215160D01*
X128490D02*
X161510D01*
X128490Y194840D02*
Y215160D01*
X100200Y252490D02*
Y285510D01*
X79880D02*
X100200D01*
X79880Y252490D02*
Y285510D01*
Y252490D02*
X100200D01*
X74490Y367160D02*
X107510D01*
X74490Y346840D02*
Y367160D01*
Y346840D02*
X107510D01*
Y367160D01*
X82490Y198840D02*
X115510D01*
Y219160D01*
X82490D02*
X115510D01*
X82490Y198840D02*
Y219160D01*
Y176840D02*
X115510D01*
Y197160D01*
X82490D02*
X115510D01*
X82490Y176840D02*
Y197160D01*
X82990Y175160D02*
X116010D01*
X82990Y154840D02*
Y175160D01*
Y154840D02*
X116010D01*
Y175160D01*
X206840Y245990D02*
Y279010D01*
Y245990D02*
X227160D01*
Y279010D01*
X206840D02*
X227160D01*
X617160Y444490D02*
Y477510D01*
X596840D02*
X617160D01*
X596840Y444490D02*
Y477510D01*
Y444490D02*
X617160D01*
X592160D02*
Y477510D01*
X571840D02*
X592160D01*
X571840Y444490D02*
Y477510D01*
Y444490D02*
X592160D01*
X646160Y406490D02*
Y439510D01*
X625840D02*
X646160D01*
X625840Y406490D02*
Y439510D01*
Y406490D02*
X646160D01*
X319840Y56490D02*
Y89510D01*
Y56490D02*
X340160D01*
Y89510D01*
X319840D02*
X340160D01*
X319840Y37990D02*
Y71010D01*
Y37990D02*
X340160D01*
Y71010D01*
X319840D02*
X340160D01*
X360490Y109160D02*
X393510D01*
X360490Y88840D02*
Y109160D01*
Y88840D02*
X393510D01*
Y109160D01*
X602490Y215840D02*
X635510D01*
Y236160D01*
X602490D02*
X635510D01*
X602490Y215840D02*
Y236160D01*
X395490Y218840D02*
X428510D01*
Y239160D01*
X395490D02*
X428510D01*
X395490Y218840D02*
Y239160D01*
X225513Y417840D02*
X258533D01*
Y438160D01*
X225513D02*
X258533D01*
X225513Y417840D02*
Y438160D01*
X579990Y391160D02*
X613010D01*
X579990Y370840D02*
Y391160D01*
Y370840D02*
X613010D01*
Y391160D01*
X681160Y182490D02*
Y215510D01*
X660840D02*
X681160D01*
X660840Y182490D02*
Y215510D01*
Y182490D02*
X681160D01*
X659840Y216490D02*
Y249510D01*
Y216490D02*
X680160D01*
Y249510D01*
X659840D02*
X680160D01*
X261840Y46490D02*
Y79510D01*
Y46490D02*
X282160D01*
Y79510D01*
X261840D02*
X282160D01*
X39160Y268490D02*
Y301510D01*
X18840D02*
X39160D01*
X18840Y268490D02*
Y301510D01*
Y268490D02*
X39160D01*
X260160Y133490D02*
Y166510D01*
X239840D02*
X260160D01*
X239840Y133490D02*
Y166510D01*
Y133490D02*
X260160D01*
X638840Y217490D02*
Y250510D01*
Y217490D02*
X659160D01*
Y250510D01*
X638840D02*
X659160D01*
X260490Y102160D02*
X293510D01*
X260490Y81840D02*
Y102160D01*
Y81840D02*
X293510D01*
Y102160D01*
X4490Y242840D02*
X37510D01*
Y263160D01*
X4490D02*
X37510D01*
X4490Y242840D02*
Y263160D01*
X80620Y200030D02*
Y227970D01*
X65380D02*
X80620D01*
X65380Y200030D02*
Y227970D01*
Y200030D02*
X80620D01*
X65380Y171030D02*
Y198970D01*
Y171030D02*
X80620D01*
Y198970D01*
X65380D02*
X80620D01*
X629380Y528860D02*
Y524861D01*
Y526861D01*
X641376D01*
X639377Y528860D01*
X513620Y4540D02*
Y8539D01*
Y6539D01*
X501624D01*
X503623Y4540D01*
X285020D02*
Y8539D01*
Y6539D01*
X273024D01*
X275023Y4540D01*
X678000Y464000D02*
X681999D01*
X679999D01*
Y475996D01*
X678000Y473997D01*
X410940Y528860D02*
Y524861D01*
Y526861D01*
X422936D01*
X420937Y528860D01*
X125140Y440380D02*
X129139D01*
X127139D01*
Y452376D01*
X125140Y450377D01*
X121820Y67140D02*
Y71139D01*
Y69139D01*
X109824D01*
X111823Y67140D01*
X30226Y367742D02*
Y371741D01*
Y369741D01*
X18230D01*
X20229Y367742D01*
X45974Y361558D02*
Y357559D01*
Y359559D01*
X57970D01*
X55971Y361558D01*
X302000Y416996D02*
Y405000D01*
Y410998D01*
X303999Y412997D01*
X307998D01*
X309997Y410998D01*
Y405000D01*
X315996Y414997D02*
Y412997D01*
X313996D01*
X317995D01*
X315996D01*
Y406999D01*
X317995Y405000D01*
X325992Y414997D02*
Y412997D01*
X323993D01*
X327992D01*
X325992D01*
Y406999D01*
X327992Y405000D01*
X333990Y401001D02*
Y412997D01*
X339988D01*
X341987Y410998D01*
Y406999D01*
X339988Y405000D01*
X333990D01*
X345986D02*
X351984D01*
X353983Y406999D01*
X351984Y408999D01*
X347985D01*
X345986Y410998D01*
X347985Y412997D01*
X353983D01*
X357982D02*
X359981D01*
Y410998D01*
X357982D01*
Y412997D01*
Y406999D02*
X359981D01*
Y405000D01*
X357982D01*
Y406999D01*
X367979Y405000D02*
X375976Y412997D01*
X379975Y405000D02*
X387972Y412997D01*
X395970Y401001D02*
X397969D01*
X399968Y403001D01*
Y412997D01*
X393970D01*
X391971Y410998D01*
Y406999D01*
X393970Y405000D01*
X399968D01*
X403967D02*
X407966D01*
X405966D01*
Y412997D01*
X403967D01*
X415963Y414997D02*
Y412997D01*
X413964D01*
X417962D01*
X415963D01*
Y406999D01*
X417962Y405000D01*
X423961Y416996D02*
Y405000D01*
Y410998D01*
X425960Y412997D01*
X429959D01*
X431958Y410998D01*
Y405000D01*
X435957Y412997D02*
Y406999D01*
X437956Y405000D01*
X443954D01*
Y412997D01*
X447953Y416996D02*
Y405000D01*
X453951D01*
X455950Y406999D01*
Y408999D01*
Y410998D01*
X453951Y412997D01*
X447953D01*
X459949Y405000D02*
Y406999D01*
X461948D01*
Y405000D01*
X459949D01*
X477943Y412997D02*
X471945D01*
X469946Y410998D01*
Y406999D01*
X471945Y405000D01*
X477943D01*
X483941D02*
X487940D01*
X489939Y406999D01*
Y410998D01*
X487940Y412997D01*
X483941D01*
X481942Y410998D01*
Y406999D01*
X483941Y405000D01*
X493938D02*
Y412997D01*
X495937D01*
X497937Y410998D01*
Y405000D01*
Y410998D01*
X499936Y412997D01*
X501935Y410998D01*
Y405000D01*
X505934D02*
X513932Y412997D01*
X517930Y405000D02*
Y412997D01*
X521929Y416996D01*
X525928Y412997D01*
Y405000D01*
Y410998D01*
X517930D01*
X529926Y405000D02*
Y412997D01*
X531926D01*
X533925Y410998D01*
Y405000D01*
Y410998D01*
X535924Y412997D01*
X537924Y410998D01*
Y405000D01*
X541922D02*
X545921D01*
X543922D01*
Y412997D01*
X541922D01*
X551919Y405000D02*
Y412997D01*
X557917D01*
X559917Y410998D01*
Y405000D01*
X563915Y412997D02*
X571913D01*
X563915Y405000D01*
X571913D01*
X577911Y412997D02*
X581909D01*
X583909Y410998D01*
Y405000D01*
X577911D01*
X575911Y406999D01*
X577911Y408999D01*
X583909D01*
X587907Y405000D02*
Y416996D01*
Y408999D02*
X593906Y412997D01*
X587907Y408999D02*
X593906Y405000D01*
X599904Y412997D02*
Y406999D01*
X601903Y405000D01*
X607901D01*
Y403001D01*
X605902Y401001D01*
X603902D01*
X607901Y405000D02*
Y412997D01*
X50800Y446000D02*
Y449999D01*
Y447999D01*
X38804D01*
X40803Y446000D01*
D11*
X197000Y265000D02*
G03*
X197000Y265000I-1000J0D01*
G01*
X597000Y241000D02*
Y245000D01*
X7000Y304000D02*
X11000D01*
X384000Y425000D02*
Y434997D01*
X388998Y439995D01*
X393997Y434997D01*
Y425000D01*
Y432498D01*
X384000D01*
X398995Y425000D02*
Y434997D01*
X401494D01*
X403993Y432498D01*
Y425000D01*
Y432498D01*
X406493Y434997D01*
X408992Y432498D01*
Y425000D01*
X413990D02*
X418989D01*
X416489D01*
Y434997D01*
X413990D01*
X426486Y425000D02*
Y434997D01*
X433984D01*
X436483Y432498D01*
Y425000D01*
X456477Y439995D02*
X466473D01*
Y437496D01*
X456477Y427499D01*
Y425000D01*
X466473D01*
X473971Y434997D02*
X478969D01*
X481468Y432498D01*
Y425000D01*
X473971D01*
X471472Y427499D01*
X473971Y429998D01*
X481468D01*
X486467Y425000D02*
Y439995D01*
Y429998D02*
X493964Y434997D01*
X486467Y429998D02*
X493964Y425000D01*
X501462Y434997D02*
Y427499D01*
X503961Y425000D01*
X511459D01*
Y422501D01*
X508960Y420002D01*
X506460D01*
X511459Y425000D02*
Y434997D01*
M02*
