G04*
G04 #@! TF.GenerationSoftware,Altium Limited,Altium Designer,19.0.15 (446)*
G04*
G04 Layer_Physical_Order=1*
G04 Layer_Color=255*
%FSLAX44Y44*%
%MOMM*%
G71*
G01*
G75*
%ADD11C,0.4000*%
%ADD12R,1.3500X0.4000*%
%ADD13R,1.4000X1.6000*%
%ADD14R,1.9000X1.9000*%
%ADD15R,1.6000X3.0000*%
%ADD16R,3.5000X2.2000*%
%ADD17R,0.6000X2.2000*%
%ADD18R,1.0000X0.5500*%
%ADD19R,0.5500X1.0000*%
%ADD20R,1.3000X0.9000*%
%ADD21R,0.9000X1.3000*%
%ADD22R,0.5588X0.6858*%
%ADD23R,0.6858X0.5588*%
%ADD24R,2.6000X2.5000*%
%ADD25R,2.5000X2.6000*%
%ADD26R,0.8000X0.8000*%
%ADD27R,2.7000X2.0000*%
%ADD28R,0.5500X1.5000*%
%ADD29R,1.5000X0.5500*%
%ADD30R,1.3000X0.7000*%
%ADD31R,0.7000X1.3000*%
%ADD32R,0.9000X0.6000*%
%ADD57R,1.9000X1.9000*%
%ADD58C,1.9000*%
%ADD67C,1.0160*%
%ADD68C,0.3000*%
%ADD69C,0.5000*%
%ADD70R,1.6000X2.0000*%
%ADD71O,1.6000X2.0000*%
%ADD72R,1.7000X1.7000*%
%ADD73C,1.7000*%
G04:AMPARAMS|DCode=74|XSize=2mm|YSize=1.2mm|CornerRadius=0.36mm|HoleSize=0mm|Usage=FLASHONLY|Rotation=0.000|XOffset=0mm|YOffset=0mm|HoleType=Round|Shape=RoundedRectangle|*
%AMROUNDEDRECTD74*
21,1,2.0000,0.4800,0,0,0.0*
21,1,1.2800,1.2000,0,0,0.0*
1,1,0.7200,0.6400,-0.2400*
1,1,0.7200,-0.6400,-0.2400*
1,1,0.7200,-0.6400,0.2400*
1,1,0.7200,0.6400,0.2400*
%
%ADD74ROUNDEDRECTD74*%
%ADD75C,4.0000*%
%ADD76C,3.2000*%
%ADD77R,2.0000X1.6000*%
%ADD78O,2.0000X1.6000*%
%ADD79C,7.4000*%
%ADD80C,0.6000*%
G36*
X15500Y521500D02*
X33500D01*
Y513500D01*
X46500D01*
Y517922D01*
X55078D01*
X55095Y517895D01*
X56749Y516790D01*
X58700Y516402D01*
X60651Y516790D01*
X62305Y517895D01*
X63410Y519549D01*
X63798Y521500D01*
X94093D01*
X94930Y520545D01*
X94859Y520000D01*
X95102Y518152D01*
X95815Y516429D01*
X96950Y514950D01*
X98429Y513816D01*
X100152Y513102D01*
X102000Y512859D01*
X103848Y513102D01*
X105570Y513816D01*
X107049Y514950D01*
X108184Y516429D01*
X108897Y518152D01*
X109141Y520000D01*
X109069Y520545D01*
X109907Y521500D01*
X138551D01*
X139151Y520230D01*
X137361Y518049D01*
X135690Y514922D01*
X134661Y511529D01*
X134313Y508000D01*
X134661Y504471D01*
X135690Y501078D01*
X137361Y497951D01*
X139611Y495210D01*
X142351Y492961D01*
X145478Y491290D01*
X148871Y490261D01*
X152400Y489913D01*
X155929Y490261D01*
X159322Y491290D01*
X162449Y492961D01*
X165189Y495210D01*
X167439Y497951D01*
X169110Y501078D01*
X170140Y504471D01*
X170487Y508000D01*
X170140Y511529D01*
X169110Y514922D01*
X167439Y518049D01*
X165649Y520230D01*
X166249Y521500D01*
X227291D01*
X227777Y520327D01*
X223137Y515687D01*
X221488Y515834D01*
X220492Y517132D01*
X218403Y518735D01*
X215970Y519743D01*
X213360Y520086D01*
X210749Y519743D01*
X208317Y518735D01*
X206228Y517132D01*
X204625Y515043D01*
X203617Y512611D01*
X203274Y510000D01*
Y506000D01*
X203617Y503390D01*
X204625Y500957D01*
X206228Y498868D01*
X208317Y497265D01*
X210749Y496257D01*
X212772Y495991D01*
X213245Y494668D01*
X192145Y473569D01*
X125478D01*
X85383Y513663D01*
X84226Y514437D01*
X82860Y514709D01*
X62800D01*
X61434Y514437D01*
X60277Y513663D01*
X55268Y508655D01*
X53541Y509370D01*
X50800Y509731D01*
X48059Y509370D01*
X45505Y508312D01*
X43311Y506629D01*
X41628Y504435D01*
X40570Y501881D01*
X40209Y499140D01*
X40570Y496399D01*
X41628Y493845D01*
X43311Y491651D01*
X44914Y490421D01*
X44598Y489063D01*
X44464Y489037D01*
X43306Y488263D01*
X39351Y484309D01*
X32400D01*
X32054Y484240D01*
X14900D01*
Y463240D01*
X28177D01*
X28703Y461970D01*
X25733Y459000D01*
X14500D01*
Y446000D01*
X31500D01*
Y448422D01*
X57331D01*
X59319Y446434D01*
X59540Y445319D01*
X60645Y443665D01*
X62299Y442560D01*
X64250Y442172D01*
X66201Y442560D01*
X67855Y443665D01*
X68960Y445319D01*
X69348Y447270D01*
X69080Y448617D01*
X70251Y449242D01*
X83017Y436476D01*
X84175Y435703D01*
X85540Y435431D01*
X117767D01*
X121222Y431977D01*
X122379Y431203D01*
X123745Y430932D01*
X139493D01*
X139745Y429661D01*
X138957Y429335D01*
X136868Y427732D01*
X135265Y425643D01*
X134258Y423211D01*
X133914Y420600D01*
X134258Y417990D01*
X135265Y415557D01*
X136868Y413468D01*
X138957Y411865D01*
X141390Y410858D01*
X144000Y410514D01*
X148000D01*
X150611Y410858D01*
X152085Y411468D01*
X155932Y407622D01*
Y403294D01*
X154662Y402693D01*
X153043Y403935D01*
X150611Y404943D01*
X148000Y405286D01*
X144000D01*
X141390Y404943D01*
X138957Y403935D01*
X136868Y402332D01*
X135265Y400243D01*
X134258Y397811D01*
X133914Y395200D01*
X134258Y392590D01*
X134319Y392443D01*
X132745Y390869D01*
X86087D01*
X85372Y392595D01*
X83689Y394789D01*
X81495Y396472D01*
X78941Y397530D01*
X76200Y397891D01*
X73459Y397530D01*
X70905Y396472D01*
X68711Y394789D01*
X67028Y392595D01*
X65970Y390041D01*
X65609Y387300D01*
X65970Y384559D01*
X67028Y382005D01*
X68711Y379812D01*
X70905Y378129D01*
X73459Y377071D01*
X76200Y376710D01*
X78941Y377071D01*
X81495Y378129D01*
X83689Y379812D01*
X85372Y382005D01*
X86087Y383732D01*
X92292D01*
X92677Y382462D01*
X91395Y381605D01*
X90290Y379951D01*
X89902Y378000D01*
X90290Y376049D01*
X91395Y374395D01*
X93049Y373290D01*
X94469Y373008D01*
X95142Y372141D01*
X95232Y371660D01*
X94902Y370000D01*
X95290Y368049D01*
X96145Y366770D01*
X95623Y365500D01*
X95000D01*
Y348500D01*
X106000D01*
Y349431D01*
X121250D01*
Y340239D01*
X106410D01*
X105045Y339967D01*
X103887Y339194D01*
X102882Y338189D01*
X88751D01*
X79613Y347327D01*
X80099Y348500D01*
X87000D01*
Y365500D01*
X81047D01*
X61141Y385405D01*
X61391Y387300D01*
X61030Y390041D01*
X59972Y392595D01*
X58289Y394789D01*
X56095Y396472D01*
X53541Y397530D01*
X50800Y397891D01*
X48059Y397530D01*
X45505Y396472D01*
X43639Y395040D01*
X42369Y395503D01*
Y399222D01*
X46332Y403186D01*
X48059Y402471D01*
X50800Y402110D01*
X53541Y402471D01*
X56095Y403529D01*
X58289Y405211D01*
X59972Y407405D01*
X61030Y409959D01*
X61391Y412700D01*
X61030Y415441D01*
X59972Y417995D01*
X58289Y420189D01*
X56095Y421872D01*
X53541Y422930D01*
X50800Y423291D01*
X48059Y422930D01*
X45505Y421872D01*
X43311Y420189D01*
X41628Y417995D01*
X40570Y415441D01*
X40209Y412700D01*
X40570Y409959D01*
X41286Y408232D01*
X36277Y403224D01*
X35503Y402066D01*
X35231Y400700D01*
Y397800D01*
X14900D01*
Y376800D01*
X30853D01*
X53980Y353674D01*
X53494Y352500D01*
X40300D01*
Y333943D01*
X39030Y333417D01*
X34915Y337533D01*
X35630Y339259D01*
X35991Y342000D01*
X35630Y344741D01*
X34572Y347296D01*
X32889Y349489D01*
X30695Y351172D01*
X28141Y352230D01*
X25400Y352591D01*
X22659Y352230D01*
X20105Y351172D01*
X17911Y349489D01*
X16228Y347296D01*
X15170Y344741D01*
X14809Y342000D01*
X15170Y339259D01*
X16228Y336705D01*
X17911Y334512D01*
X20105Y332829D01*
X22659Y331771D01*
X25400Y331410D01*
X28141Y331771D01*
X29868Y332486D01*
X36277Y326077D01*
X37434Y325303D01*
X38800Y325032D01*
X42597D01*
X43060Y323762D01*
X41628Y321896D01*
X40570Y319341D01*
X40209Y316600D01*
X40570Y313859D01*
X41628Y311305D01*
X43060Y309439D01*
X42597Y308169D01*
X38878D01*
X34915Y312133D01*
X35630Y313859D01*
X35991Y316600D01*
X35630Y319341D01*
X34572Y321896D01*
X32889Y324089D01*
X30695Y325772D01*
X28141Y326830D01*
X25400Y327191D01*
X22659Y326830D01*
X20105Y325772D01*
X17911Y324089D01*
X16228Y321896D01*
X15170Y319341D01*
X14809Y316600D01*
X15170Y313859D01*
X16228Y311305D01*
X17911Y309112D01*
X20105Y307429D01*
X22659Y306371D01*
X25400Y306010D01*
X28141Y306371D01*
X29868Y307086D01*
X34877Y302077D01*
X36034Y301303D01*
X37400Y301032D01*
X55771D01*
X57136Y301303D01*
X58294Y302077D01*
X61148Y304931D01*
X84419D01*
X89874Y299477D01*
X91032Y298703D01*
X91243Y298661D01*
X96428Y293477D01*
X97586Y292703D01*
X98951Y292431D01*
X102500D01*
Y283250D01*
Y275569D01*
X101018D01*
X98540Y278047D01*
Y284000D01*
X81540D01*
Y282069D01*
X75250D01*
Y283500D01*
X65750D01*
Y269500D01*
X75250D01*
Y274931D01*
X81540D01*
Y273000D01*
X93493D01*
X97016Y269477D01*
X98174Y268703D01*
X99540Y268431D01*
X102500D01*
Y267250D01*
X121250D01*
Y254000D01*
X99013D01*
X97951Y254710D01*
X96000Y255098D01*
X94049Y254710D01*
X92987Y254000D01*
X75250D01*
Y256500D01*
X67020D01*
X65750Y256500D01*
Y256500D01*
X65750D01*
Y256500D01*
X57520D01*
X56250Y256500D01*
Y256500D01*
X56250D01*
Y256500D01*
X46750D01*
Y254319D01*
X36000D01*
Y261500D01*
X25000D01*
Y254000D01*
X17000D01*
Y261500D01*
X13819D01*
Y267014D01*
X14429D01*
Y271555D01*
X14806Y271931D01*
X20500D01*
Y270000D01*
X37500D01*
Y281000D01*
X20500D01*
Y279069D01*
X13327D01*
X11962Y278797D01*
X10804Y278023D01*
X9383Y276602D01*
X6500D01*
Y528500D01*
X5731Y529269D01*
X5765Y529439D01*
X7143Y529857D01*
X15500Y521500D01*
D02*
G37*
G36*
X96918Y490482D02*
X96432Y489309D01*
X61894D01*
X60747Y495716D01*
X61030Y496399D01*
X61391Y499140D01*
X61030Y501881D01*
X60314Y503608D01*
X64278Y507571D01*
X79829D01*
X96918Y490482D01*
D02*
G37*
G36*
X282067Y516661D02*
X280825Y515043D01*
X279817Y512611D01*
X279474Y510000D01*
Y506000D01*
X279817Y503390D01*
X280825Y500957D01*
X282428Y498868D01*
X284517Y497265D01*
X286950Y496257D01*
X289560Y495914D01*
X292171Y496257D01*
X292406Y496355D01*
X294459Y494301D01*
X294150Y493491D01*
X293889Y493076D01*
X292049Y492710D01*
X290395Y491605D01*
X289290Y489951D01*
X288902Y488000D01*
X289290Y486049D01*
X289702Y485433D01*
X289431Y484071D01*
Y446200D01*
X287300Y444069D01*
X285667D01*
X258713Y471023D01*
X257555Y471797D01*
X256189Y472068D01*
X202398D01*
X201912Y473242D01*
X227383Y498713D01*
X228157Y499871D01*
X228429Y501236D01*
Y501492D01*
X229699Y501745D01*
X230025Y500957D01*
X231628Y498868D01*
X233717Y497265D01*
X236150Y496257D01*
X238760Y495914D01*
X239433Y496002D01*
X240422Y495096D01*
Y492500D01*
X238000D01*
Y488078D01*
X234000D01*
X232439Y487768D01*
X231116Y486884D01*
X231116Y486884D01*
X230311Y486078D01*
X224896D01*
X223951Y486710D01*
X222000Y487098D01*
X220049Y486710D01*
X218395Y485605D01*
X217290Y483951D01*
X216902Y482000D01*
X217290Y480049D01*
X218395Y478395D01*
X220049Y477290D01*
X222000Y476902D01*
X223951Y477290D01*
X224896Y477922D01*
X232000D01*
X232000Y477922D01*
X233561Y478232D01*
X234884Y479116D01*
X235689Y479922D01*
X238000D01*
Y475500D01*
X251000D01*
Y492500D01*
X248578D01*
Y497013D01*
X248578Y497013D01*
X248268Y498574D01*
X247384Y499897D01*
X246986Y500294D01*
X247495Y500957D01*
X248503Y503390D01*
X248846Y506000D01*
Y510000D01*
X248503Y512611D01*
X247495Y515043D01*
X246253Y516661D01*
X246854Y517932D01*
X281466D01*
X282067Y516661D01*
D02*
G37*
G36*
X665000Y517421D02*
X664430Y517185D01*
X662951Y516050D01*
X661816Y514571D01*
X661102Y512849D01*
X660859Y511000D01*
X661102Y509152D01*
X661816Y507430D01*
X662951Y505951D01*
X664430Y504816D01*
X665000Y504580D01*
Y479000D01*
X650000D01*
Y474068D01*
X645500D01*
Y477000D01*
X628501D01*
Y464000D01*
X645500D01*
Y466931D01*
X650000D01*
Y459000D01*
X665000D01*
Y454518D01*
X664045Y453680D01*
X664000Y453686D01*
X660000D01*
X657390Y453342D01*
X654957Y452335D01*
X652868Y450732D01*
X651265Y448643D01*
X650613Y447069D01*
X645500D01*
Y458000D01*
X628501D01*
Y452069D01*
X626312D01*
X625633Y451934D01*
X624947Y451797D01*
X624947Y451797D01*
X624947Y451797D01*
X624365Y451408D01*
X623789Y451023D01*
X621720Y448955D01*
X621000Y449098D01*
X619049Y448710D01*
X617395Y447605D01*
X616770Y446669D01*
X615500Y447054D01*
Y457000D01*
X600206D01*
X599720Y458174D01*
X604523Y462976D01*
X605297Y464134D01*
X605469Y465000D01*
X615500D01*
Y476000D01*
X611168D01*
X610817Y477270D01*
X619221Y485674D01*
X619365Y485703D01*
X620523Y486476D01*
X630047Y496000D01*
X645000D01*
Y520000D01*
X625000D01*
Y501047D01*
X616279Y492325D01*
X616134Y492297D01*
X614977Y491523D01*
X604477Y481023D01*
X603703Y479866D01*
X603432Y478500D01*
Y476000D01*
X598500D01*
Y468846D01*
X598431Y468500D01*
X598431Y468500D01*
X598431Y468500D01*
Y466978D01*
X589477Y458023D01*
X588793Y457000D01*
X575206D01*
X574720Y458174D01*
X579523Y462976D01*
X580297Y464134D01*
X580469Y465000D01*
X590500D01*
Y476000D01*
X586167D01*
X585817Y477270D01*
X605444Y496898D01*
X606990Y496257D01*
X609600Y495914D01*
X612211Y496257D01*
X614643Y497265D01*
X616732Y498868D01*
X618335Y500957D01*
X619343Y503390D01*
X619686Y506000D01*
Y510000D01*
X619343Y512611D01*
X618335Y515043D01*
X616732Y517132D01*
X614643Y518735D01*
X612211Y519743D01*
X609600Y520086D01*
X606990Y519743D01*
X604557Y518735D01*
X602468Y517132D01*
X600865Y515043D01*
X599857Y512611D01*
X599514Y510000D01*
Y506000D01*
X599857Y503390D01*
X600439Y501986D01*
X579477Y481023D01*
X578703Y479866D01*
X578431Y478500D01*
Y476000D01*
X573500D01*
Y468846D01*
X573431Y468500D01*
X573431Y468500D01*
X573431Y468500D01*
Y466978D01*
X529242Y422789D01*
X528069Y423275D01*
Y444822D01*
X580115Y496868D01*
X581590Y496257D01*
X584200Y495914D01*
X586810Y496257D01*
X589243Y497265D01*
X591332Y498868D01*
X592935Y500957D01*
X593943Y503390D01*
X594286Y506000D01*
Y510000D01*
X593943Y512611D01*
X592935Y515043D01*
X591332Y517132D01*
X589243Y518735D01*
X586810Y519743D01*
X584200Y520086D01*
X581590Y519743D01*
X579157Y518735D01*
X577068Y517132D01*
X575465Y515043D01*
X574457Y512611D01*
X574114Y510000D01*
Y506000D01*
X574457Y503390D01*
X575068Y501915D01*
X524242Y451089D01*
X523069Y451575D01*
Y463522D01*
X555917Y496370D01*
X556189Y496257D01*
X558800Y495914D01*
X561410Y496257D01*
X563843Y497265D01*
X565932Y498868D01*
X567535Y500957D01*
X568543Y503390D01*
X568886Y506000D01*
Y510000D01*
X568543Y512611D01*
X567535Y515043D01*
X565932Y517132D01*
X563843Y518735D01*
X561410Y519743D01*
X558800Y520086D01*
X556189Y519743D01*
X553757Y518735D01*
X551668Y517132D01*
X550065Y515043D01*
X549057Y512611D01*
X548714Y510000D01*
Y506000D01*
X549057Y503390D01*
X550065Y500957D01*
X550215Y500761D01*
X516977Y467523D01*
X516203Y466365D01*
X515932Y465000D01*
Y290500D01*
X516203Y289134D01*
X516977Y287976D01*
X521332Y283622D01*
Y213276D01*
X519857Y212665D01*
X517768Y211062D01*
X516165Y208973D01*
X515158Y206541D01*
X514814Y203930D01*
Y199930D01*
X515158Y197320D01*
X516165Y194887D01*
X517768Y192798D01*
X519857Y191195D01*
X522290Y190187D01*
X524900Y189844D01*
X527511Y190187D01*
X529943Y191195D01*
X532032Y192798D01*
X533635Y194887D01*
X534643Y197320D01*
X534986Y199930D01*
Y203930D01*
X534643Y206541D01*
X533635Y208973D01*
X532032Y211062D01*
X529943Y212665D01*
X528469Y213276D01*
Y285100D01*
X528197Y286465D01*
X527424Y287623D01*
X523069Y291978D01*
Y313225D01*
X524242Y313711D01*
X546732Y291222D01*
Y213276D01*
X545257Y212665D01*
X543168Y211062D01*
X541565Y208973D01*
X540558Y206541D01*
X540214Y203930D01*
Y199930D01*
X540558Y197320D01*
X541565Y194887D01*
X543168Y192798D01*
X545257Y191195D01*
X547690Y190187D01*
X550300Y189844D01*
X552911Y190187D01*
X555343Y191195D01*
X557432Y192798D01*
X559035Y194887D01*
X560043Y197320D01*
X560386Y199930D01*
Y203930D01*
X560043Y206541D01*
X559035Y208973D01*
X557432Y211062D01*
X555343Y212665D01*
X553869Y213276D01*
Y290772D01*
X555042Y291258D01*
X568431Y277869D01*
Y252579D01*
X568703Y251214D01*
X569477Y250056D01*
X572132Y247401D01*
Y213276D01*
X570657Y212665D01*
X568568Y211062D01*
X566965Y208973D01*
X565958Y206541D01*
X565614Y203930D01*
Y199930D01*
X565958Y197320D01*
X566965Y194887D01*
X568568Y192798D01*
X570657Y191195D01*
X573090Y190187D01*
X575700Y189844D01*
X578311Y190187D01*
X580743Y191195D01*
X582832Y192798D01*
X584435Y194887D01*
X585443Y197320D01*
X585786Y199930D01*
Y203930D01*
X585443Y206541D01*
X584435Y208973D01*
X582832Y211062D01*
X580743Y212665D01*
X579269Y213276D01*
Y231025D01*
X580442Y231511D01*
X597504Y214449D01*
X597382Y213214D01*
X596057Y212665D01*
X593968Y211062D01*
X592365Y208973D01*
X591358Y206541D01*
X591014Y203930D01*
Y199930D01*
X591358Y197320D01*
X592365Y194887D01*
X593968Y192798D01*
X596057Y191195D01*
X598490Y190187D01*
X601100Y189844D01*
X603711Y190187D01*
X606143Y191195D01*
X608232Y192798D01*
X609835Y194887D01*
X610843Y197320D01*
X611186Y199930D01*
Y203930D01*
X610843Y206541D01*
X609835Y208973D01*
X608232Y211062D01*
X606143Y212665D01*
X604669Y213276D01*
Y215900D01*
X604603Y216230D01*
X605645Y217500D01*
X612953D01*
X616432Y214022D01*
Y208430D01*
X616500Y208086D01*
Y189930D01*
X620781D01*
Y176400D01*
X621053Y175034D01*
X621826Y173877D01*
X647750Y147953D01*
Y146068D01*
X498006D01*
X496641Y145797D01*
X495483Y145023D01*
X488984Y138524D01*
X488983Y138523D01*
X485477Y135017D01*
X484703Y133859D01*
X484431Y132493D01*
Y103000D01*
X484604Y102133D01*
X483476Y101359D01*
X482951Y101710D01*
X481000Y102098D01*
X479049Y101710D01*
X477395Y100605D01*
X476290Y98951D01*
X475902Y97000D01*
X476290Y95049D01*
X477395Y93395D01*
X479049Y92290D01*
X479488Y92203D01*
X482422Y89270D01*
Y84700D01*
X480000D01*
Y67700D01*
X482422D01*
Y61500D01*
X480000D01*
Y46064D01*
X478730Y45538D01*
X474000Y50268D01*
Y61500D01*
X461000D01*
Y57078D01*
X458689D01*
X456884Y58884D01*
X455561Y59768D01*
X454000Y60079D01*
X453500Y61156D01*
Y65000D01*
X436500D01*
Y52000D01*
X447106D01*
X447500Y51922D01*
X452311D01*
X454116Y50116D01*
X454116Y50116D01*
X455439Y49232D01*
X457000Y48922D01*
X461000D01*
Y44500D01*
X468232D01*
X472537Y40195D01*
Y39323D01*
X472289Y38951D01*
X471900Y37000D01*
X472289Y35049D01*
X473394Y33395D01*
X475047Y32290D01*
X476998Y31902D01*
X478949Y32290D01*
X480603Y33395D01*
X481708Y35049D01*
X482096Y37000D01*
X481708Y38951D01*
X480694Y40469D01*
Y41885D01*
X480426Y43230D01*
X480854Y44049D01*
X481206Y44500D01*
X491657D01*
X492183Y43230D01*
X488977Y40023D01*
X488203Y38866D01*
X487932Y37500D01*
Y30478D01*
X473454Y16000D01*
X472922Y15468D01*
X465294D01*
X464693Y16739D01*
X465935Y18357D01*
X466943Y20789D01*
X467286Y23400D01*
Y27400D01*
X466943Y30010D01*
X465935Y32443D01*
X464332Y34532D01*
X462243Y36135D01*
X459810Y37143D01*
X457200Y37486D01*
X454590Y37143D01*
X452157Y36135D01*
X450068Y34532D01*
X448465Y32443D01*
X447457Y30010D01*
X447114Y27400D01*
Y23400D01*
X447457Y20789D01*
X448465Y18357D01*
X449707Y16739D01*
X449106Y15468D01*
X389094D01*
X388493Y16739D01*
X389735Y18357D01*
X390743Y20789D01*
X391086Y23400D01*
Y27400D01*
X390743Y30010D01*
X389735Y32443D01*
X388132Y34532D01*
X386043Y36135D01*
X385078Y36535D01*
Y40500D01*
X389000D01*
Y57500D01*
X386578D01*
Y66399D01*
X386268Y67960D01*
X385384Y69283D01*
X385384Y69283D01*
X365340Y89327D01*
X365826Y90500D01*
X373000D01*
Y107500D01*
X365846D01*
X365500Y107569D01*
X363168D01*
X362656Y108839D01*
X368415Y114598D01*
X369890Y113987D01*
X372500Y113644D01*
X375111Y113987D01*
X377543Y114995D01*
X379632Y116598D01*
X381235Y118687D01*
X382243Y121119D01*
X382586Y123730D01*
Y127730D01*
X382243Y130340D01*
X381235Y132773D01*
X379632Y134862D01*
X377543Y136465D01*
X375111Y137473D01*
X372500Y137816D01*
X369890Y137473D01*
X367457Y136465D01*
X365368Y134862D01*
X363765Y132773D01*
X362758Y130340D01*
X362414Y127730D01*
Y123730D01*
X362758Y121119D01*
X363368Y119645D01*
X358292Y114569D01*
X353674D01*
X353243Y115839D01*
X354232Y116598D01*
X355835Y118687D01*
X356843Y121119D01*
X357186Y123730D01*
Y127730D01*
X356843Y130340D01*
X355835Y132773D01*
X354232Y134862D01*
X352143Y136465D01*
X350669Y137076D01*
Y185243D01*
X350397Y186608D01*
X349623Y187766D01*
X348695Y188695D01*
X348626Y188764D01*
X349081Y190105D01*
X349711Y190187D01*
X352143Y191195D01*
X354232Y192798D01*
X355835Y194887D01*
X356843Y197320D01*
X357186Y199930D01*
Y203930D01*
X356843Y206541D01*
X356232Y208015D01*
X379758Y231541D01*
X380931Y231055D01*
Y217408D01*
X376585Y213062D01*
X375111Y213673D01*
X372500Y214016D01*
X369890Y213673D01*
X367457Y212665D01*
X365368Y211062D01*
X363765Y208973D01*
X362758Y206541D01*
X362414Y203930D01*
Y199930D01*
X362758Y197320D01*
X363765Y194887D01*
X365368Y192798D01*
X367457Y191195D01*
X369890Y190187D01*
X372500Y189844D01*
X375111Y190187D01*
X377543Y191195D01*
X379632Y192798D01*
X381235Y194887D01*
X382243Y197320D01*
X382586Y199930D01*
Y203930D01*
X382243Y206541D01*
X381632Y208015D01*
D01*
X387023Y213407D01*
X387797Y214564D01*
X388069Y215930D01*
Y228069D01*
Y317022D01*
X428478Y357431D01*
X474000D01*
X475366Y357703D01*
X476523Y358477D01*
X497024Y378977D01*
X497797Y380135D01*
X498069Y381500D01*
Y491022D01*
X503915Y496868D01*
X505390Y496257D01*
X508000Y495914D01*
X510611Y496257D01*
X513043Y497265D01*
X515132Y498868D01*
X516735Y500957D01*
X517743Y503390D01*
X518086Y506000D01*
Y510000D01*
X517743Y512611D01*
X516735Y515043D01*
X515132Y517132D01*
X513043Y518735D01*
X510611Y519743D01*
X508000Y520086D01*
X505390Y519743D01*
X502957Y518735D01*
X500868Y517132D01*
X499265Y515043D01*
X498257Y512611D01*
X497914Y510000D01*
Y506000D01*
X498257Y503390D01*
X498868Y501915D01*
X491977Y495024D01*
X491203Y493866D01*
X490932Y492500D01*
Y382979D01*
X472522Y364569D01*
X427000D01*
X425634Y364297D01*
X424477Y363523D01*
X384242Y323289D01*
X383069Y323775D01*
Y337022D01*
X414478Y368431D01*
X459000D01*
X460365Y368703D01*
X461523Y369476D01*
X485123Y393077D01*
X485897Y394234D01*
X486169Y395600D01*
Y496654D01*
X487643Y497265D01*
X489732Y498868D01*
X491335Y500957D01*
X492343Y503390D01*
X492686Y506000D01*
Y510000D01*
X492343Y512611D01*
X491335Y515043D01*
X489732Y517132D01*
X487643Y518735D01*
X485210Y519743D01*
X482600Y520086D01*
X479990Y519743D01*
X477557Y518735D01*
X475468Y517132D01*
X473865Y515043D01*
X472857Y512611D01*
X472514Y510000D01*
Y506000D01*
X472857Y503390D01*
X473865Y500957D01*
X475468Y498868D01*
X477557Y497265D01*
X479031Y496654D01*
Y397078D01*
X457522Y375568D01*
X413000D01*
X411634Y375297D01*
X410477Y374523D01*
X378742Y342788D01*
X377568Y343274D01*
Y357522D01*
X412478Y392432D01*
X443000D01*
X444365Y392703D01*
X444365Y392703D01*
X444366Y392703D01*
X444947Y393092D01*
X445523Y393477D01*
X452523Y400476D01*
X452523Y400476D01*
X452523Y400477D01*
X452908Y401052D01*
X453297Y401634D01*
X453297Y401634D01*
X453297Y401634D01*
X453569Y403000D01*
Y494044D01*
X455643Y496119D01*
X457200Y495914D01*
X459810Y496257D01*
X462243Y497265D01*
X464332Y498868D01*
X465935Y500957D01*
X466943Y503390D01*
X467286Y506000D01*
Y510000D01*
X466943Y512611D01*
X465935Y515043D01*
X464332Y517132D01*
X462243Y518735D01*
X459810Y519743D01*
X457200Y520086D01*
X454590Y519743D01*
X452157Y518735D01*
X450068Y517132D01*
X448465Y515043D01*
X447457Y512611D01*
X447114Y510000D01*
Y506000D01*
X447457Y503390D01*
X448465Y500957D01*
X449300Y499869D01*
X447477Y498046D01*
X446703Y496888D01*
X446432Y495522D01*
Y404478D01*
X441522Y399569D01*
X411000D01*
X409634Y399297D01*
X408477Y398524D01*
X371476Y361523D01*
X370703Y360366D01*
X370431Y359000D01*
Y252144D01*
X363742Y245454D01*
X362569Y245940D01*
Y364762D01*
X419083Y421277D01*
X419857Y422434D01*
X420129Y423800D01*
Y496000D01*
X426560D01*
Y520000D01*
X406560D01*
Y496000D01*
X412991D01*
Y425278D01*
X356477Y368763D01*
X355703Y367606D01*
X355432Y366240D01*
Y244215D01*
X352742Y241525D01*
X351568Y242011D01*
Y367980D01*
X393683Y410095D01*
X394457Y411252D01*
X394729Y412618D01*
Y496654D01*
X396203Y497265D01*
X398292Y498868D01*
X399895Y500957D01*
X400903Y503390D01*
X401246Y506000D01*
Y510000D01*
X400903Y512611D01*
X399895Y515043D01*
X398292Y517132D01*
X396203Y518735D01*
X393770Y519743D01*
X391160Y520086D01*
X388549Y519743D01*
X386117Y518735D01*
X384028Y517132D01*
X382425Y515043D01*
X381417Y512611D01*
X381074Y510000D01*
Y506000D01*
X381417Y503390D01*
X382425Y500957D01*
X384028Y498868D01*
X386117Y497265D01*
X387591Y496654D01*
Y414096D01*
X358742Y385246D01*
X357568Y385732D01*
Y391380D01*
X368283Y402095D01*
X369057Y403252D01*
X369329Y404618D01*
Y496654D01*
X370803Y497265D01*
X372892Y498868D01*
X374495Y500957D01*
X375503Y503390D01*
X375846Y506000D01*
Y510000D01*
X375503Y512611D01*
X374495Y515043D01*
X372892Y517132D01*
X370803Y518735D01*
X368371Y519743D01*
X365760Y520086D01*
X363149Y519743D01*
X360717Y518735D01*
X358628Y517132D01*
X357025Y515043D01*
X356017Y512611D01*
X355674Y510000D01*
Y506000D01*
X356017Y503390D01*
X357025Y500957D01*
X358628Y498868D01*
X360717Y497265D01*
X362191Y496654D01*
Y406096D01*
X353742Y397647D01*
X352569Y398133D01*
Y499360D01*
X352297Y500726D01*
X351523Y501883D01*
X350078Y503329D01*
X350103Y503390D01*
X350446Y506000D01*
Y510000D01*
X350103Y512611D01*
X349095Y515043D01*
X347492Y517132D01*
X345403Y518735D01*
X342971Y519743D01*
X340360Y520086D01*
X337749Y519743D01*
X336275Y519132D01*
X334580Y520827D01*
X335066Y522000D01*
X665000D01*
Y517421D01*
D02*
G37*
G36*
X318000Y470761D02*
Y451337D01*
X316395Y450265D01*
X315290Y448611D01*
X314902Y446660D01*
X314910Y446617D01*
X293777Y425484D01*
X293003Y424326D01*
X292732Y422960D01*
Y378849D01*
X292451Y378569D01*
X226775D01*
X226289Y379742D01*
X232547Y386000D01*
X239500D01*
Y398000D01*
X227500D01*
Y391047D01*
X209997Y373543D01*
X197050D01*
X196564Y374717D01*
X225779Y403932D01*
X230000D01*
X230344Y404000D01*
X238500D01*
Y416000D01*
X226500D01*
Y411069D01*
X224301D01*
X222935Y410797D01*
X221777Y410024D01*
X164727Y352973D01*
X163953Y351815D01*
X163891Y351500D01*
X153569D01*
Y354058D01*
X169523Y370013D01*
X169523Y370013D01*
X170297Y371171D01*
X170569Y372537D01*
Y389700D01*
X180500D01*
Y391632D01*
X191200D01*
X192566Y391903D01*
X193723Y392677D01*
X196957Y395910D01*
X197000Y395902D01*
X198951Y396290D01*
X200605Y397395D01*
X201710Y399049D01*
X202098Y401000D01*
X201710Y402951D01*
X200605Y404605D01*
X198951Y405710D01*
X197000Y406098D01*
X195049Y405710D01*
X193395Y404605D01*
X192290Y402951D01*
X191902Y401000D01*
X191910Y400957D01*
X189722Y398769D01*
X180500D01*
Y400700D01*
X163500D01*
X163069Y401791D01*
Y409100D01*
X162797Y410466D01*
X162024Y411623D01*
X157132Y416515D01*
X157743Y417990D01*
X158087Y420600D01*
X157743Y423211D01*
X156735Y425643D01*
X155132Y427732D01*
X153043Y429335D01*
X152255Y429661D01*
X152508Y430932D01*
X157450D01*
X158816Y431203D01*
X159230Y431480D01*
X160500Y430801D01*
Y425750D01*
X174500D01*
Y426421D01*
X177749D01*
X177749Y426421D01*
X179310Y426732D01*
X180633Y427616D01*
X180836Y427819D01*
X181951Y428041D01*
X183605Y429146D01*
X184710Y430800D01*
X185098Y432751D01*
X184710Y434701D01*
X183605Y436355D01*
X181951Y437460D01*
X180000Y437849D01*
X178049Y437460D01*
X176395Y436355D01*
X175770Y435419D01*
X174500Y435804D01*
Y443480D01*
X174500Y444750D01*
X174500D01*
Y444750D01*
X174500D01*
Y446281D01*
X182150D01*
X183516Y446553D01*
X184673Y447326D01*
X193778Y456432D01*
X221285D01*
X222650Y456703D01*
X223808Y457477D01*
X226263Y459931D01*
X252640D01*
X279595Y432977D01*
X280753Y432203D01*
X282118Y431932D01*
X290849D01*
X292215Y432203D01*
X293372Y432977D01*
X300523Y440128D01*
X301297Y441285D01*
X301568Y442651D01*
Y480522D01*
X304904Y483857D01*
X318000Y470761D01*
D02*
G37*
G36*
X627500Y432244D02*
Y427000D01*
X639454D01*
X648290Y418164D01*
X649447Y417391D01*
X650036Y417273D01*
X650258Y415589D01*
X651265Y413157D01*
X652868Y411068D01*
X654957Y409465D01*
X657390Y408457D01*
X660000Y408114D01*
X664000D01*
X666611Y408457D01*
X669043Y409465D01*
X669611Y409901D01*
X670750Y409339D01*
Y290862D01*
X669769Y290056D01*
X669657Y290078D01*
X669657Y290078D01*
X589189D01*
X549078Y330189D01*
Y335796D01*
X550204Y336922D01*
X581000D01*
Y333500D01*
X594000D01*
Y343732D01*
X605268Y355000D01*
X611500D01*
Y367000D01*
X599500D01*
Y360768D01*
X597673Y358941D01*
X596500Y359427D01*
Y367000D01*
X592319D01*
Y372500D01*
X592500D01*
Y389500D01*
X581500D01*
Y372500D01*
X585182D01*
Y367000D01*
X584500D01*
Y355000D01*
X592073D01*
X592559Y353827D01*
X589232Y350500D01*
X581000D01*
Y345078D01*
X548515D01*
X548515Y345078D01*
X546954Y344768D01*
X545631Y343884D01*
X545631Y343884D01*
X544242Y342495D01*
X543069Y342981D01*
Y351278D01*
X576767Y384977D01*
X577541Y386135D01*
X577812Y387500D01*
Y408534D01*
X579082Y409233D01*
X580744Y408902D01*
X582695Y409290D01*
X584348Y410395D01*
X584506Y410631D01*
X602750D01*
X604116Y410903D01*
X605274Y411676D01*
X626327Y432730D01*
X627500Y432244D01*
D02*
G37*
G36*
X284262Y351555D02*
Y257309D01*
X272277Y245324D01*
X271556Y244244D01*
X271418Y244149D01*
X270154Y243893D01*
X265000Y249047D01*
Y273000D01*
X235000D01*
Y256569D01*
X225500D01*
Y258500D01*
X215568D01*
Y260750D01*
X215296Y262116D01*
X214523Y263274D01*
X212470Y265327D01*
X212956Y266500D01*
X225500D01*
Y272453D01*
X231728Y278681D01*
X234942D01*
X236308Y278953D01*
X237466Y279727D01*
X242523Y284784D01*
X243297Y285942D01*
X243569Y287308D01*
Y293000D01*
X265000D01*
Y322000D01*
X250547D01*
X245317Y327230D01*
X245843Y328500D01*
X247000D01*
Y345500D01*
X234000D01*
Y328500D01*
X236931D01*
Y327000D01*
X237203Y325634D01*
X237976Y324477D01*
X239280Y323173D01*
X238794Y322000D01*
X235000D01*
Y293000D01*
X236432D01*
Y288786D01*
X233464Y285819D01*
X230250D01*
X228884Y285547D01*
X227727Y284773D01*
X220453Y277500D01*
X213547D01*
X213447Y277600D01*
Y278121D01*
X213176Y279487D01*
X212402Y280645D01*
X210523Y282523D01*
X209366Y283297D01*
X208000Y283568D01*
X205500D01*
Y284750D01*
X186500D01*
X186078Y285845D01*
Y288218D01*
X189033Y291172D01*
X195250D01*
X195250Y291171D01*
X195644Y291250D01*
X205500D01*
Y292839D01*
X206218Y292982D01*
X207541Y293866D01*
X210384Y296709D01*
X210384Y296709D01*
X211268Y298032D01*
X211509Y299241D01*
X214268Y302000D01*
X225500D01*
Y315000D01*
X208500D01*
Y307768D01*
X206673Y305942D01*
X205500Y306428D01*
Y315250D01*
Y324431D01*
X208000D01*
X209366Y324703D01*
X210523Y325476D01*
X233478Y348431D01*
X278000D01*
X279366Y348703D01*
X280523Y349476D01*
X283088Y352042D01*
X284262Y351555D01*
D02*
G37*
G36*
X186500Y323250D02*
Y315250D01*
Y307250D01*
Y299161D01*
X185783Y299018D01*
X184459Y298134D01*
X179116Y292791D01*
X178232Y291467D01*
X177922Y289907D01*
X177922Y289907D01*
Y267500D01*
X153250D01*
Y248500D01*
X154432D01*
Y241699D01*
X147000D01*
X145634Y241427D01*
X145455Y241307D01*
X144539Y242223D01*
X145018Y242940D01*
X145329Y244500D01*
X145329Y244501D01*
Y248500D01*
X146750D01*
Y267500D01*
X123239D01*
X123134Y268030D01*
X122692Y268692D01*
X122030Y269134D01*
X121500Y269239D01*
Y275250D01*
Y283250D01*
Y291250D01*
Y299250D01*
Y307250D01*
Y315250D01*
Y323250D01*
Y332500D01*
X186500D01*
Y323250D01*
D02*
G37*
G36*
X640500Y238000D02*
X657500D01*
Y239932D01*
X661500D01*
Y237000D01*
X670750D01*
Y229000D01*
X661500D01*
Y218000D01*
X668922D01*
Y214000D01*
X662501D01*
Y205706D01*
X661327Y205219D01*
X657250Y209297D01*
Y215500D01*
X654568D01*
Y219000D01*
X657500D01*
Y230000D01*
X640500D01*
Y219000D01*
X647431D01*
Y215500D01*
X640250D01*
Y202500D01*
X653953D01*
X656431Y200022D01*
Y175000D01*
X656703Y173634D01*
X657250Y172815D01*
Y165999D01*
X665480D01*
X666750Y165999D01*
Y165999D01*
X666750D01*
Y165999D01*
X669432D01*
Y164485D01*
X668049Y164210D01*
X666395Y163105D01*
X665290Y161451D01*
X664902Y159500D01*
X665290Y157549D01*
X666395Y155895D01*
X668049Y154790D01*
X668935Y154614D01*
X669764Y153159D01*
X669707Y153000D01*
X666750D01*
Y146929D01*
X665939Y146768D01*
X665000Y146140D01*
D01*
X664616Y145884D01*
X664616Y145884D01*
X658520Y139788D01*
X657250Y140314D01*
D01*
Y153000D01*
X652797D01*
X627918Y177878D01*
Y189930D01*
X636500D01*
Y213930D01*
X623569D01*
Y215500D01*
X623424Y216230D01*
X624229Y217418D01*
X624367Y217500D01*
X634000D01*
Y234500D01*
X631267D01*
X629370Y236398D01*
X629856Y237571D01*
X633986D01*
Y240182D01*
X640500D01*
Y238000D01*
D02*
G37*
G36*
X160846Y235891D02*
X160833Y235826D01*
Y223764D01*
X160290Y222951D01*
X159902Y221000D01*
X160290Y219049D01*
X161395Y217395D01*
X163049Y216290D01*
X165000Y215902D01*
X166230Y216147D01*
X166951Y216290D01*
X168605Y217395D01*
X169710Y219049D01*
X170098Y221000D01*
X169878Y222106D01*
X170837Y223376D01*
X177134D01*
X180922Y219589D01*
Y199972D01*
X179652Y199269D01*
X178000Y199598D01*
X176049Y199210D01*
X175104Y198578D01*
X169189D01*
X166327Y201441D01*
X160079Y207689D01*
Y209000D01*
X160000Y209394D01*
Y213500D01*
X150569D01*
Y234562D01*
X156243D01*
X157608Y234833D01*
X158766Y235607D01*
X159676Y236516D01*
X160846Y235891D01*
D02*
G37*
G36*
X188421Y241061D02*
Y237000D01*
X188421Y237000D01*
X188500Y236606D01*
Y228000D01*
X199732D01*
X209422Y218310D01*
Y218000D01*
X209422Y218000D01*
X209500Y217606D01*
Y213394D01*
X209422Y213000D01*
X209422Y213000D01*
Y207689D01*
X204732Y203000D01*
X192000D01*
Y190000D01*
X203233D01*
X207068Y186164D01*
X207246Y185270D01*
X206580Y184000D01*
X192000D01*
Y176768D01*
X190252Y175019D01*
X189078Y175505D01*
Y221278D01*
X189078Y221278D01*
X188768Y222839D01*
X187884Y224162D01*
X182902Y229144D01*
Y236376D01*
X178078D01*
Y248500D01*
X180982D01*
X188421Y241061D01*
D02*
G37*
G36*
X208431Y259272D02*
Y255000D01*
X208431Y255000D01*
X208431Y255000D01*
X208500Y254654D01*
Y247500D01*
X225500D01*
Y249432D01*
X235000D01*
Y244000D01*
X259953D01*
X264431Y239522D01*
Y223528D01*
X263426Y222523D01*
X262653Y221366D01*
X262381Y220000D01*
Y214701D01*
X253748Y206069D01*
X252148D01*
X247568Y210649D01*
Y227000D01*
X247500Y227345D01*
Y238500D01*
X234500D01*
Y221500D01*
X240431D01*
Y209170D01*
X240703Y207805D01*
X241476Y206647D01*
X248147Y199977D01*
X249305Y199203D01*
X250670Y198931D01*
X254993D01*
X255379Y198371D01*
X255560Y197703D01*
X247477Y189619D01*
X246703Y188461D01*
X246431Y187096D01*
Y165000D01*
X241500D01*
Y154000D01*
X258500D01*
Y165000D01*
X253569D01*
Y185618D01*
X265457Y197507D01*
X265500Y197498D01*
X267451Y197886D01*
X269105Y198991D01*
X269961Y200273D01*
X271231Y199888D01*
Y118200D01*
X271503Y116834D01*
X272277Y115677D01*
X286184Y101770D01*
X285807Y100613D01*
X285719Y100500D01*
X281000D01*
Y88977D01*
X270023Y78000D01*
X263500D01*
Y78000D01*
X262512Y77591D01*
X260079Y80023D01*
X258922Y80797D01*
X257556Y81068D01*
X257000D01*
Y94000D01*
X234000D01*
Y72341D01*
D01*
Y71000D01*
X241931D01*
Y28469D01*
X239700Y27545D01*
X237298Y25702D01*
X235455Y23299D01*
X234296Y20502D01*
X233901Y17500D01*
X234194Y15270D01*
X233228Y14000D01*
X213500D01*
X215327Y12173D01*
X214841Y11000D01*
X154605D01*
X149575Y5970D01*
X148363Y6350D01*
X147530Y11000D01*
X99000D01*
X91039Y18961D01*
Y30550D01*
X90884Y31330D01*
X90442Y31992D01*
X79992Y42442D01*
X79330Y42884D01*
X78550Y43039D01*
X66961D01*
X55000Y55000D01*
Y91912D01*
X62000D01*
Y79500D01*
X82000D01*
Y113500D01*
X62000D01*
X60953Y114040D01*
X59951Y114710D01*
X58000Y115098D01*
X56270Y114754D01*
X55000Y115420D01*
Y121000D01*
X8000D01*
Y230527D01*
X12721Y235249D01*
X9000Y242840D01*
X10660Y244500D01*
X17000D01*
Y245000D01*
X25000D01*
Y244500D01*
X36000D01*
Y245000D01*
X46750D01*
Y242500D01*
X54980D01*
X56250Y242500D01*
Y242500D01*
X56250D01*
Y242500D01*
X60704D01*
X60813Y242391D01*
X60953Y241685D01*
X61727Y240527D01*
X67777Y234477D01*
X68935Y233703D01*
X70301Y233432D01*
X86000D01*
Y223500D01*
X99000D01*
Y234655D01*
X99069Y235000D01*
Y246037D01*
X99605Y246395D01*
X100710Y248049D01*
X101098Y250000D01*
X100961Y250691D01*
X102003Y251961D01*
X121250D01*
Y248500D01*
X137172D01*
Y246190D01*
X131116Y240134D01*
X130232Y238811D01*
X129922Y237250D01*
X129922Y237250D01*
Y234500D01*
X129922Y234500D01*
X129950Y234356D01*
Y219470D01*
X132672D01*
Y213500D01*
X130000D01*
Y196500D01*
X139492D01*
X139902Y196000D01*
X140290Y194049D01*
X141395Y192395D01*
X143049Y191290D01*
X145000Y190902D01*
X146951Y191290D01*
X148605Y192395D01*
X149710Y194049D01*
X150098Y196000D01*
X151293Y196500D01*
X159733D01*
X164616Y191616D01*
X164616Y191616D01*
X165939Y190732D01*
X167500Y190422D01*
X175104D01*
X176049Y189790D01*
X178000Y189402D01*
X179652Y189731D01*
X180922Y189028D01*
Y182578D01*
Y168532D01*
X160467Y148078D01*
X141500D01*
X141500Y148078D01*
X139939Y147768D01*
X138616Y146884D01*
X138616Y146884D01*
X133716Y141984D01*
X132832Y140661D01*
X132522Y139100D01*
X132522Y139100D01*
Y129000D01*
X131600D01*
Y118579D01*
X123500D01*
Y121000D01*
X106500D01*
Y108000D01*
X123500D01*
Y110422D01*
X129058D01*
X129584Y109152D01*
X120432Y100000D01*
X106200D01*
Y76000D01*
X126200D01*
Y94232D01*
X131652Y99685D01*
X134890Y102922D01*
X135600D01*
X135600Y102922D01*
X135994Y103000D01*
X141600D01*
Y111922D01*
X144300D01*
Y103000D01*
X154300D01*
Y129000D01*
X144300D01*
Y120079D01*
X141600D01*
Y129000D01*
X140679D01*
Y136341D01*
D01*
X141948Y136466D01*
D01*
D01*
X142254Y134933D01*
X142290Y134749D01*
X143395Y133095D01*
X145049Y131990D01*
X147000Y131602D01*
X148951Y131990D01*
X149896Y132622D01*
X163342D01*
X163342Y132622D01*
X164903Y132932D01*
X166226Y133816D01*
X192730Y160320D01*
X193884Y161474D01*
X193884Y161474D01*
X194768Y162797D01*
X195078Y164358D01*
Y168311D01*
X197768Y171000D01*
X209000D01*
Y173422D01*
X215500D01*
Y171000D01*
X224422D01*
Y164250D01*
X223500D01*
Y154750D01*
X237500D01*
Y164250D01*
X232578D01*
Y175000D01*
X232500Y175394D01*
Y184000D01*
X217420D01*
X216754Y185270D01*
X217098Y187000D01*
X216710Y188951D01*
X215605Y190605D01*
X213951Y191710D01*
X212836Y191932D01*
X209018Y195750D01*
X216384Y203116D01*
X216384Y203116D01*
X217268Y204439D01*
X217578Y206000D01*
X217578Y206000D01*
Y209000D01*
X226500D01*
Y222000D01*
X216974D01*
X216384Y222884D01*
X216384Y222884D01*
X205500Y233768D01*
Y241000D01*
X196578D01*
Y242750D01*
X196268Y244311D01*
X195384Y245634D01*
X186750Y254268D01*
Y267250D01*
X200453D01*
X208431Y259272D01*
D02*
G37*
G36*
X670750Y138921D02*
Y27874D01*
X669795Y27036D01*
X669000Y27141D01*
X667152Y26898D01*
X666554Y26650D01*
X665429Y26184D01*
X663950Y25050D01*
X662816Y23570D01*
X662102Y21848D01*
X661859Y20000D01*
X662102Y18152D01*
X662816Y16429D01*
X663705Y15270D01*
X663250Y14000D01*
X641263D01*
X640832Y15270D01*
X642132Y16268D01*
X643735Y18357D01*
X644743Y20789D01*
X645086Y23400D01*
Y27400D01*
X644743Y30010D01*
X643735Y32443D01*
X642132Y34532D01*
X640043Y36135D01*
X637611Y37143D01*
X635000Y37486D01*
X632389Y37143D01*
X630915Y36532D01*
X621407Y46040D01*
X621776Y47255D01*
X621951Y47290D01*
X623605Y48395D01*
X624710Y50049D01*
X625098Y52000D01*
X624710Y53951D01*
X623605Y55605D01*
X623301Y55808D01*
Y91316D01*
X645107Y113122D01*
X645700D01*
X645700Y113122D01*
X647261Y113432D01*
X648584Y114316D01*
X652767Y118500D01*
X660000D01*
Y129732D01*
X663827Y133559D01*
X669189Y138921D01*
X670750D01*
X670750Y138921D01*
D02*
G37*
G36*
X340591Y99258D02*
X337273Y95940D01*
X336389Y94617D01*
X336078Y93056D01*
X336078Y93056D01*
Y91346D01*
X332732Y88000D01*
X321500D01*
Y77000D01*
X338500D01*
Y82233D01*
X343041Y86773D01*
X343041Y86773D01*
X343925Y88096D01*
X344235Y89657D01*
X344235Y89657D01*
Y91367D01*
D01*
X346790Y93922D01*
X349210D01*
X378422Y64710D01*
Y57500D01*
X376000D01*
Y40500D01*
X376922D01*
Y36535D01*
X375957Y36135D01*
X373868Y34532D01*
X372265Y32443D01*
X371257Y30010D01*
X370914Y27400D01*
Y23400D01*
X371257Y20789D01*
X372265Y18357D01*
X373507Y16739D01*
X372906Y15468D01*
X363694D01*
X363093Y16739D01*
X364335Y18357D01*
X365343Y20789D01*
X365686Y23400D01*
Y27400D01*
X365343Y30010D01*
X364335Y32443D01*
X362732Y34532D01*
X360643Y36135D01*
X359678Y36535D01*
Y40000D01*
X364100D01*
Y53000D01*
X347100D01*
Y49828D01*
X338500D01*
Y50500D01*
X321564D01*
X320711Y51443D01*
X327267Y58000D01*
X338500D01*
Y69500D01*
X326768D01*
X314960Y81307D01*
X315098Y82000D01*
X314710Y83951D01*
X313605Y85605D01*
X311951Y86710D01*
X310000Y87098D01*
X308049Y86710D01*
X306395Y85605D01*
X305290Y83951D01*
X304902Y82000D01*
X305290Y80049D01*
X306395Y78395D01*
X306987Y78000D01*
X307499Y77233D01*
X321232Y63500D01*
X310810Y53078D01*
X307300D01*
X306906Y53000D01*
X296300D01*
Y50578D01*
X283689D01*
X280500Y53768D01*
Y59000D01*
X263500D01*
Y48000D01*
X274732D01*
X279116Y43616D01*
X279116Y43616D01*
X280439Y42732D01*
X282000Y42421D01*
X296300D01*
Y40000D01*
X300722D01*
Y36535D01*
X299757Y36135D01*
X297668Y34532D01*
X296065Y32443D01*
X295057Y30010D01*
X294714Y27400D01*
Y23400D01*
X295057Y20789D01*
X296065Y18357D01*
X297668Y16268D01*
X298968Y15270D01*
X298537Y14000D01*
X289400D01*
Y16000D01*
Y37400D01*
X269400D01*
Y16000D01*
Y14000D01*
X257771D01*
X256806Y15270D01*
X257099Y17500D01*
X256704Y20502D01*
X255545Y23299D01*
X253702Y25702D01*
X251299Y27545D01*
X249069Y28469D01*
Y71000D01*
X257000D01*
Y71350D01*
X258173Y71836D01*
X260032Y69977D01*
X261190Y69203D01*
X262556Y68932D01*
X263500D01*
Y67000D01*
X280500D01*
Y78000D01*
X280500Y78000D01*
X280500D01*
X281116Y78999D01*
X285616Y83500D01*
X292000D01*
Y100432D01*
X340105D01*
X340591Y99258D01*
D02*
G37*
G36*
X6500Y78500D02*
X50250D01*
Y43250D01*
X52500Y41000D01*
X78550D01*
X89000Y30550D01*
Y3000D01*
X6000D01*
X3000Y6000D01*
X3978Y79367D01*
X5155Y79845D01*
X6500Y78500D01*
D02*
G37*
%LPC*%
G36*
X187960Y520086D02*
X185350Y519743D01*
X182917Y518735D01*
X180828Y517132D01*
X179225Y515043D01*
X178217Y512611D01*
X177874Y510000D01*
Y506000D01*
X178217Y503390D01*
X179225Y500957D01*
X180828Y498868D01*
X182917Y497265D01*
X185350Y496257D01*
X187960Y495914D01*
X190571Y496257D01*
X193003Y497265D01*
X195092Y498868D01*
X196695Y500957D01*
X197703Y503390D01*
X198046Y506000D01*
Y510000D01*
X197703Y512611D01*
X196695Y515043D01*
X195092Y517132D01*
X193003Y518735D01*
X190571Y519743D01*
X187960Y520086D01*
D02*
G37*
G36*
X76200Y423291D02*
X73459Y422930D01*
X70905Y421872D01*
X68711Y420189D01*
X67028Y417995D01*
X65970Y415441D01*
X65609Y412700D01*
X65970Y409959D01*
X67028Y407405D01*
X68711Y405211D01*
X70905Y403529D01*
X73459Y402471D01*
X76200Y402110D01*
X78941Y402471D01*
X81495Y403529D01*
X83689Y405211D01*
X85372Y407405D01*
X86430Y409959D01*
X86791Y412700D01*
X86430Y415441D01*
X85372Y417995D01*
X83689Y420189D01*
X81495Y421872D01*
X78941Y422930D01*
X76200Y423291D01*
D02*
G37*
G36*
X75000Y302500D02*
X62000D01*
Y285500D01*
X75000D01*
Y290421D01*
X79104D01*
X80049Y289790D01*
X82000Y289402D01*
X83951Y289790D01*
X85605Y290895D01*
X86710Y292549D01*
X87098Y294500D01*
X86710Y296451D01*
X85605Y298105D01*
X83951Y299210D01*
X82000Y299598D01*
X80049Y299210D01*
X79104Y298578D01*
X75000D01*
Y302500D01*
D02*
G37*
G36*
X533400Y520086D02*
X530789Y519743D01*
X528357Y518735D01*
X526268Y517132D01*
X524665Y515043D01*
X523657Y512611D01*
X523314Y510000D01*
Y506000D01*
X523657Y503390D01*
X524268Y501915D01*
X506477Y484124D01*
X505703Y482966D01*
X505432Y481600D01*
Y329478D01*
X499477Y323524D01*
X499477Y323523D01*
X499477Y323523D01*
X499092Y322948D01*
X498703Y322366D01*
X498703Y322366D01*
X498703Y322366D01*
X498431Y321000D01*
Y213876D01*
X496890Y213673D01*
X494457Y212665D01*
X492368Y211062D01*
X490765Y208973D01*
X489758Y206541D01*
X489414Y203930D01*
Y199930D01*
X489758Y197320D01*
X490765Y194887D01*
X492368Y192798D01*
X494457Y191195D01*
X496890Y190187D01*
X499500Y189844D01*
X502111Y190187D01*
X504543Y191195D01*
X506632Y192798D01*
X508235Y194887D01*
X509243Y197320D01*
X509586Y199930D01*
Y203930D01*
X509243Y206541D01*
X508235Y208973D01*
X506632Y211062D01*
X505569Y211878D01*
Y319522D01*
X511524Y325476D01*
X511524Y325476D01*
X511524Y325476D01*
X511629Y325634D01*
X511908Y326052D01*
X512297Y326634D01*
X512297Y326634D01*
X512297Y326634D01*
X512569Y328000D01*
Y352569D01*
Y480122D01*
X529315Y496868D01*
X530789Y496257D01*
X533400Y495914D01*
X536011Y496257D01*
X538443Y497265D01*
X540532Y498868D01*
X542135Y500957D01*
X543143Y503390D01*
X543486Y506000D01*
Y510000D01*
X543143Y512611D01*
X542135Y515043D01*
X540532Y517132D01*
X538443Y518735D01*
X536011Y519743D01*
X533400Y520086D01*
D02*
G37*
G36*
X478000Y299000D02*
X449000D01*
Y269000D01*
X459932D01*
Y267478D01*
X452953Y260500D01*
X445000D01*
Y250568D01*
X436500D01*
X435134Y250297D01*
X433977Y249523D01*
X430173Y245720D01*
X429000Y246206D01*
Y260500D01*
X426069D01*
Y269000D01*
X429000D01*
Y299000D01*
X400000D01*
Y269000D01*
X418932D01*
Y260500D01*
X416000D01*
Y250207D01*
X414977Y249523D01*
X402953Y237500D01*
X397000D01*
Y220500D01*
X398333D01*
X398684Y219230D01*
X397864Y218411D01*
X397091Y217253D01*
X396819Y215887D01*
Y213874D01*
X395290Y213673D01*
X392857Y212665D01*
X390768Y211062D01*
X389165Y208973D01*
X388158Y206541D01*
X387814Y203930D01*
Y199930D01*
X388158Y197320D01*
X389165Y194887D01*
X390768Y192798D01*
X392857Y191195D01*
X395290Y190187D01*
X397900Y189844D01*
X400511Y190187D01*
X402943Y191195D01*
X405032Y192798D01*
X406635Y194887D01*
X407643Y197320D01*
X407986Y199930D01*
Y203930D01*
X407643Y206541D01*
X406635Y208973D01*
X405032Y211062D01*
X403956Y211888D01*
Y214409D01*
X405023Y215476D01*
X405797Y216634D01*
X406069Y218000D01*
Y220500D01*
X408000D01*
Y232453D01*
X418978Y243431D01*
X419500D01*
X419846Y243500D01*
X426294D01*
X426780Y242327D01*
X421953Y237500D01*
X416000D01*
Y220500D01*
X418831D01*
Y212903D01*
X418257Y212665D01*
X416168Y211062D01*
X414565Y208973D01*
X413558Y206541D01*
X413214Y203930D01*
Y199930D01*
X413558Y197320D01*
X414565Y194887D01*
X416168Y192798D01*
X418257Y191195D01*
X420690Y190187D01*
X423300Y189844D01*
X425911Y190187D01*
X428343Y191195D01*
X430432Y192798D01*
X432035Y194887D01*
X433043Y197320D01*
X433386Y199930D01*
Y203930D01*
X433043Y206541D01*
X432035Y208973D01*
X430432Y211062D01*
X428343Y212665D01*
X425969Y213649D01*
Y220500D01*
X427000D01*
Y232453D01*
X437978Y243431D01*
X448500D01*
X448846Y243500D01*
X458000D01*
Y255453D01*
X466024Y263477D01*
X466797Y264634D01*
X467069Y266000D01*
Y269000D01*
X478000D01*
Y299000D01*
D02*
G37*
G36*
X477000Y237500D02*
X464000D01*
Y220500D01*
X468222D01*
Y212024D01*
X466968Y211062D01*
X465365Y208973D01*
X464358Y206541D01*
X464014Y203930D01*
Y199930D01*
X464358Y197320D01*
X465365Y194887D01*
X466968Y192798D01*
X469057Y191195D01*
X470022Y190795D01*
Y161789D01*
X460164Y151932D01*
X459049Y151710D01*
X457395Y150605D01*
X456290Y148951D01*
X455902Y147000D01*
X456290Y145049D01*
X457395Y143395D01*
X458795Y142460D01*
X459196Y141065D01*
X454226Y136094D01*
X453743Y136465D01*
X451311Y137473D01*
X448700Y137816D01*
X446090Y137473D01*
X443657Y136465D01*
X441568Y134862D01*
X439965Y132773D01*
X438958Y130340D01*
X438614Y127730D01*
Y123730D01*
X438958Y121119D01*
X439965Y118687D01*
X440499Y117991D01*
X439732Y116844D01*
X439422Y115283D01*
X439422Y115283D01*
Y107500D01*
X437000D01*
Y90500D01*
X450000D01*
Y107500D01*
X447579D01*
Y112514D01*
X448700Y113644D01*
X451311Y113987D01*
X453743Y114995D01*
X455832Y116598D01*
X457435Y118687D01*
X458443Y121119D01*
X458786Y123730D01*
Y127730D01*
X458625Y128958D01*
X488589Y158922D01*
X585000D01*
X585000Y158922D01*
X585000Y158922D01*
X585950Y159111D01*
X586561Y159232D01*
X586561Y159232D01*
X586561Y159232D01*
X587203Y159661D01*
X587884Y160116D01*
X587884Y160116D01*
X587884Y160116D01*
X590227Y162459D01*
X590227Y162460D01*
X590227Y162460D01*
X590227Y162460D01*
X590645Y163086D01*
X591111Y163783D01*
X591111Y163783D01*
X591111Y163783D01*
X591276Y164611D01*
X591421Y165343D01*
Y168657D01*
X591421Y168657D01*
X591111Y170218D01*
X591078Y170266D01*
D01*
Y171104D01*
X591710Y172049D01*
X592098Y174000D01*
X591710Y175951D01*
X590605Y177605D01*
X588951Y178710D01*
X587000Y179098D01*
X585049Y178710D01*
X583395Y177605D01*
X582290Y175951D01*
X581902Y174000D01*
X582290Y172049D01*
X582922Y171104D01*
Y169000D01*
X582922Y169000D01*
X583051Y168348D01*
X582258Y167187D01*
D01*
D01*
X582062Y167078D01*
X486899D01*
X485339Y166768D01*
X484016Y165884D01*
X479449Y161317D01*
X478178Y161843D01*
Y190795D01*
X479143Y191195D01*
X481232Y192798D01*
X482835Y194887D01*
X483843Y197320D01*
X484186Y199930D01*
Y203930D01*
X483843Y206541D01*
X482835Y208973D01*
X481232Y211062D01*
X479143Y212665D01*
X476711Y213673D01*
X476379Y213716D01*
Y220500D01*
X477000D01*
Y237500D01*
D02*
G37*
G36*
X397900Y137816D02*
X395290Y137473D01*
X392857Y136465D01*
X390768Y134862D01*
X389165Y132773D01*
X388158Y130340D01*
X387814Y127730D01*
Y123730D01*
X388158Y121119D01*
X389165Y118687D01*
X390768Y116598D01*
X390821Y115793D01*
X383977Y108949D01*
X383203Y107792D01*
X383145Y107500D01*
X381000D01*
Y90500D01*
X392000D01*
Y106879D01*
X398896Y113775D01*
X400511Y113987D01*
X402943Y114995D01*
X405032Y116598D01*
X406635Y118687D01*
X407643Y121119D01*
X407986Y123730D01*
Y127730D01*
X407643Y130340D01*
X406635Y132773D01*
X405032Y134862D01*
X402943Y136465D01*
X400511Y137473D01*
X397900Y137816D01*
D02*
G37*
G36*
X423300D02*
X420690Y137473D01*
X418257Y136465D01*
X416168Y134862D01*
X414565Y132773D01*
X413558Y130340D01*
X413214Y127730D01*
Y123730D01*
X413558Y121119D01*
X414565Y118687D01*
X416168Y116598D01*
X418257Y114995D01*
X419732Y114384D01*
Y112214D01*
X419931Y111210D01*
Y107500D01*
X417000D01*
Y90500D01*
X419931D01*
Y84700D01*
X417000D01*
Y67700D01*
X430000D01*
Y72631D01*
X433578D01*
X434944Y72903D01*
X435230Y73094D01*
X436500Y72415D01*
Y71000D01*
X453500D01*
Y84000D01*
X436500D01*
Y81068D01*
X434878D01*
X433512Y80797D01*
X432355Y80023D01*
X432100Y79769D01*
X430000D01*
Y84700D01*
X427068D01*
Y90500D01*
X430000D01*
Y107500D01*
X427068D01*
Y112014D01*
X426869Y113018D01*
Y114384D01*
X428343Y114995D01*
X430432Y116598D01*
X432035Y118687D01*
X433043Y121119D01*
X433386Y123730D01*
Y127730D01*
X433043Y130340D01*
X432035Y132773D01*
X430432Y134862D01*
X428343Y136465D01*
X425911Y137473D01*
X423300Y137816D01*
D02*
G37*
G36*
X212190Y443478D02*
X210239Y443090D01*
X208585Y441985D01*
X207480Y440331D01*
X207092Y438380D01*
X207436Y436650D01*
X207002Y435822D01*
X206654Y435380D01*
X204860D01*
Y429583D01*
X203590Y429057D01*
X201500Y431146D01*
Y435250D01*
X187500D01*
Y425750D01*
X196803D01*
X198716Y423837D01*
X198946Y422682D01*
X199720Y421524D01*
X203167Y418077D01*
X204325Y417303D01*
X205690Y417032D01*
X224520D01*
X225886Y417303D01*
X225886Y417303D01*
X227044Y418077D01*
X228467Y419500D01*
X238023D01*
Y436500D01*
X227023D01*
Y428150D01*
X223130Y424257D01*
X221860Y424381D01*
Y435380D01*
X217726D01*
X217378Y435822D01*
X216944Y436650D01*
X217288Y438380D01*
X216900Y440331D01*
X215795Y441985D01*
X214141Y443090D01*
X212190Y443478D01*
D02*
G37*
G36*
X248499Y456069D02*
X247134Y455797D01*
X245976Y455023D01*
X245203Y453865D01*
X244963Y452660D01*
X243523D01*
Y440660D01*
X246542D01*
Y436500D01*
X246024D01*
Y419500D01*
X257024D01*
Y436500D01*
X253679D01*
Y440660D01*
X255523D01*
Y452660D01*
X253137D01*
X253018Y452838D01*
X252634Y453414D01*
X252633Y453414D01*
X252633Y453414D01*
X251023Y455024D01*
X249865Y455797D01*
X248499Y456069D01*
D02*
G37*
G36*
X270000Y420500D02*
X259000D01*
Y413569D01*
X253500D01*
Y416000D01*
X241500D01*
Y404000D01*
X253500D01*
Y406432D01*
X259000D01*
Y403500D01*
X270000D01*
Y420500D01*
D02*
G37*
G36*
X254500Y398000D02*
X242500D01*
Y386000D01*
X254500D01*
Y388432D01*
X260000D01*
Y380500D01*
X271000D01*
Y397500D01*
X260000D01*
Y395569D01*
X254500D01*
Y398000D01*
D02*
G37*
%LPD*%
G36*
X213345Y441169D02*
X214325Y440515D01*
X214979Y439535D01*
X215209Y438380D01*
X214944Y437048D01*
Y436756D01*
X214913Y436466D01*
X214944Y436361D01*
Y436252D01*
X215056Y435983D01*
X215138Y435703D01*
X215573Y434874D01*
X215691Y434728D01*
X215777Y434560D01*
X216124Y434118D01*
X216217Y434039D01*
X216285Y433938D01*
X216517Y433783D01*
X216729Y433601D01*
X216845Y433564D01*
X216946Y433496D01*
X217220Y433442D01*
X217486Y433355D01*
X217607Y433364D01*
X217726Y433341D01*
X219821D01*
Y424381D01*
X219646Y424169D01*
X207168D01*
X205770Y425567D01*
X205581Y426514D01*
X205600Y426889D01*
X205799Y427439D01*
X206176Y428057D01*
X206302Y428141D01*
X206744Y428802D01*
X206899Y429583D01*
Y433357D01*
X207160Y433442D01*
X207434Y433496D01*
X207535Y433563D01*
X207651Y433601D01*
X207863Y433783D01*
X208096Y433938D01*
X208163Y434039D01*
X208256Y434118D01*
X208604Y434560D01*
X208689Y434728D01*
X208808Y434874D01*
X209242Y435703D01*
X209325Y435983D01*
X209436Y436252D01*
Y436361D01*
X209467Y436466D01*
X209436Y436756D01*
Y437048D01*
X209171Y438380D01*
X209401Y439535D01*
X210056Y440515D01*
X211035Y441169D01*
X212097Y441380D01*
X212283D01*
X213345Y441169D01*
D02*
G37*
%LPC*%
G36*
X114000Y217500D02*
X103000D01*
Y200500D01*
X114000D01*
D01*
Y205431D01*
X119037D01*
X119395Y204895D01*
X121049Y203790D01*
X123000Y203402D01*
X124951Y203790D01*
X126605Y204895D01*
X127710Y206549D01*
X128098Y208500D01*
X127710Y210451D01*
X126605Y212105D01*
X124951Y213210D01*
X123000Y213598D01*
X121049Y213210D01*
X120089Y212568D01*
X114000D01*
Y217500D01*
D02*
G37*
G36*
X60000Y228098D02*
X58049Y227710D01*
X56395Y226605D01*
X55290Y224951D01*
X54902Y223000D01*
X55290Y221049D01*
X55412Y220867D01*
Y218078D01*
X48745D01*
X48351Y218000D01*
X39995D01*
Y210000D01*
Y203500D01*
Y197000D01*
Y190500D01*
X48900D01*
X49245Y190431D01*
X57572D01*
X64527Y183477D01*
X65685Y182703D01*
X67050Y182431D01*
X75472D01*
X78063Y179839D01*
X78316Y178572D01*
X79089Y177414D01*
X84027Y172477D01*
X85184Y171703D01*
X86550Y171431D01*
X100522D01*
X103500Y168453D01*
Y156500D01*
X114500D01*
Y173500D01*
X108547D01*
X104817Y177230D01*
X105195Y178388D01*
X105282Y178500D01*
X114000D01*
Y188432D01*
X120000D01*
X120626Y188556D01*
X121365Y188703D01*
X121365Y188703D01*
X121365Y188703D01*
X121851Y189028D01*
X121909Y189066D01*
X122523Y189477D01*
X122957Y189911D01*
X123000Y189902D01*
X124951Y190290D01*
X126605Y191395D01*
X127710Y193049D01*
X128098Y195000D01*
X127710Y196951D01*
X126605Y198605D01*
X124951Y199710D01*
X123000Y200098D01*
X121049Y199710D01*
X119395Y198605D01*
X118290Y196951D01*
X118015Y195569D01*
X110500D01*
X110154Y195500D01*
X103000D01*
Y179664D01*
X102000Y178568D01*
X101730Y178568D01*
X95000D01*
Y195500D01*
X87846D01*
X87500Y195569D01*
X79500D01*
Y197500D01*
X71547D01*
X68720Y200327D01*
X69206Y201500D01*
X79500D01*
Y202931D01*
X84000D01*
Y200500D01*
X95000D01*
Y217500D01*
X84000D01*
Y210068D01*
X79500D01*
Y211500D01*
X66500D01*
Y210569D01*
X65068D01*
X64469Y211689D01*
X64710Y212049D01*
X65098Y214000D01*
X64710Y215951D01*
X64588Y216133D01*
Y220867D01*
X64710Y221049D01*
X65098Y223000D01*
X64710Y224951D01*
X63605Y226605D01*
X61951Y227710D01*
X60000Y228098D01*
D02*
G37*
G36*
X41697Y176138D02*
X55000Y139992D01*
Y149000D01*
X41697Y176138D01*
D02*
G37*
G36*
X210500Y164250D02*
X196500D01*
Y154750D01*
Y145250D01*
X205453D01*
X206477Y144227D01*
X207635Y143453D01*
X208341Y143313D01*
X215431Y136222D01*
Y115722D01*
X215703Y114356D01*
X216476Y113198D01*
X221481Y108195D01*
X221939Y107888D01*
X225660Y104167D01*
Y96214D01*
X242660D01*
Y99145D01*
X255308D01*
X259977Y94476D01*
X261134Y93703D01*
X262000Y93531D01*
Y83500D01*
X273000D01*
Y100500D01*
X265845D01*
X265500Y100568D01*
X263978D01*
X259310Y105237D01*
X258152Y106011D01*
X256786Y106282D01*
X242660D01*
Y109214D01*
X230707D01*
X226679Y113241D01*
X226221Y113547D01*
X222568Y117200D01*
Y134933D01*
X223500Y135750D01*
X223838Y135750D01*
X237500D01*
Y136931D01*
X241500D01*
Y135000D01*
X258500D01*
Y146000D01*
X241500D01*
Y144069D01*
X237500D01*
Y145250D01*
X223500D01*
Y139952D01*
X223297Y139815D01*
X221572Y140150D01*
X221523Y140224D01*
X212473Y149274D01*
X211316Y150047D01*
X210610Y150187D01*
X210500Y150297D01*
Y154750D01*
Y164250D01*
D02*
G37*
G36*
X192400Y129000D02*
X182400D01*
Y120079D01*
X179700D01*
Y120279D01*
Y129000D01*
X169700D01*
Y115394D01*
X169622Y115000D01*
X169622Y115000D01*
Y101637D01*
X167947Y99962D01*
X167000Y100086D01*
X164389Y99742D01*
X162205Y98837D01*
X161957Y98735D01*
X161744Y98571D01*
D01*
X159868Y97132D01*
X158265Y95043D01*
X157257Y92610D01*
X156914Y90000D01*
Y86000D01*
X157257Y83389D01*
X158265Y80957D01*
X159868Y78868D01*
X161744Y77428D01*
D01*
X161957Y77265D01*
X164389Y76257D01*
X167000Y75914D01*
X169610Y76257D01*
X172043Y77265D01*
X174132Y78868D01*
X175735Y80957D01*
X176742Y83389D01*
X177086Y86000D01*
Y90000D01*
X176742Y92610D01*
X175735Y95043D01*
X175226Y95706D01*
X175368Y95848D01*
X176584Y97063D01*
X176584Y97063D01*
X177468Y98386D01*
X177547Y98784D01*
X177778Y99947D01*
Y102800D01*
Y103000D01*
X179700D01*
Y111721D01*
Y111922D01*
X182400D01*
Y111721D01*
Y103000D01*
X186632D01*
X190016Y99616D01*
X190016Y99616D01*
X191339Y98732D01*
X192900Y98422D01*
X194000D01*
Y98221D01*
Y94243D01*
X194039Y94046D01*
Y93845D01*
X194116Y93659D01*
X194155Y93462D01*
X194267Y93295D01*
X194344Y93110D01*
X194486Y92968D01*
X194597Y92801D01*
X194764Y92689D01*
X194906Y92547D01*
X195962Y91841D01*
X196148Y91765D01*
X196315Y91653D01*
X196512Y91614D01*
X196697Y91537D01*
X196898D01*
X197095Y91498D01*
X197292Y91537D01*
X197493D01*
X197679Y91614D01*
X197876Y91653D01*
X198030Y91717D01*
X200500Y92042D01*
X202970Y91717D01*
X205271Y90764D01*
X206276Y89993D01*
X206515Y89875D01*
X206737Y89727D01*
X206869Y89701D01*
X206990Y89641D01*
X207256Y89624D01*
X207518Y89572D01*
X222250D01*
X223030Y89727D01*
X223692Y90169D01*
X224134Y90830D01*
X224289Y91611D01*
Y102250D01*
X224134Y103030D01*
X223692Y103692D01*
X215756Y111628D01*
X215672Y111684D01*
X215608Y111762D01*
X215343Y111903D01*
X215094Y112070D01*
X214995Y112090D01*
X214906Y112137D01*
X214608Y112167D01*
X214314Y112225D01*
X214215Y112205D01*
X214114Y112215D01*
X212850Y112091D01*
X212754Y112062D01*
X212652D01*
X212375Y111947D01*
X212089Y111860D01*
X212011Y111796D01*
X211917Y111757D01*
X211705Y111545D01*
X211474Y111355D01*
X211426Y111266D01*
X211355Y111194D01*
X211135Y110865D01*
X210155Y110211D01*
X209000Y109981D01*
X207845Y110211D01*
X206865Y110865D01*
X206211Y111845D01*
X205902Y113398D01*
X205825Y113583D01*
X205786Y113780D01*
X205674Y113947D01*
X205598Y114133D01*
X205456Y114275D01*
X205344Y114442D01*
X205177Y114553D01*
X205035Y114696D01*
X204849Y114772D01*
X204682Y114884D01*
X204485Y114923D01*
X204300Y115000D01*
X204099D01*
X203902Y115039D01*
X196039D01*
X195259Y114884D01*
X194597Y114442D01*
X194155Y113780D01*
X194000Y113000D01*
Y109968D01*
X192730Y109308D01*
X192400Y109539D01*
Y111639D01*
Y126922D01*
Y129000D01*
D02*
G37*
G36*
X141600Y100086D02*
X138989Y99742D01*
X136557Y98735D01*
X134468Y97132D01*
X132865Y95043D01*
X131857Y92610D01*
X131514Y90000D01*
Y86000D01*
X131857Y83389D01*
X132865Y80957D01*
X134468Y78868D01*
X136557Y77265D01*
X138989Y76257D01*
X141600Y75914D01*
X144210Y76257D01*
X146643Y77265D01*
X148732Y78868D01*
X150335Y80957D01*
X151342Y83389D01*
X151686Y86000D01*
Y90000D01*
X151342Y92610D01*
X150335Y95043D01*
X148732Y97132D01*
X146643Y98735D01*
X144210Y99742D01*
X141600Y100086D01*
D02*
G37*
G36*
X226000Y50141D02*
X224152Y49898D01*
X222430Y49184D01*
X220951Y48050D01*
X219816Y46571D01*
X219102Y44848D01*
X218859Y43000D01*
X219102Y41152D01*
X219816Y39430D01*
X220951Y37951D01*
X222430Y36816D01*
X224152Y36102D01*
X226000Y35859D01*
X227848Y36102D01*
X229571Y36816D01*
X231050Y37951D01*
X232184Y39430D01*
X232898Y41152D01*
X233141Y43000D01*
X232898Y44848D01*
X232184Y46571D01*
X231050Y48050D01*
X229571Y49184D01*
X227848Y49898D01*
X226000Y50141D01*
D02*
G37*
%LPD*%
G36*
X190361Y109539D02*
X190396Y109365D01*
X190392Y109188D01*
X190473Y108979D01*
X190516Y108759D01*
X190615Y108611D01*
X190679Y108446D01*
X190834Y108284D01*
X190958Y108097D01*
X191106Y107999D01*
X191229Y107871D01*
X191558Y107639D01*
X191843Y107513D01*
X192116Y107364D01*
X192204Y107354D01*
X192286Y107318D01*
X192597Y107310D01*
X192906Y107276D01*
X192992Y107301D01*
X193082Y107299D01*
X193372Y107412D01*
X193671Y107499D01*
X194940Y108159D01*
X195183Y108353D01*
X195442Y108526D01*
X195492Y108601D01*
X195561Y108656D01*
X195711Y108929D01*
X195884Y109188D01*
X195901Y109275D01*
X195944Y109354D01*
X195979Y109663D01*
X196039Y109968D01*
Y113000D01*
X203902D01*
X204290Y111049D01*
X205395Y109395D01*
X207049Y108290D01*
X209000Y107902D01*
X210951Y108290D01*
X212605Y109395D01*
X213050Y110062D01*
X214314Y110186D01*
X222250Y102250D01*
Y91611D01*
X207518D01*
X206300Y92545D01*
X203502Y93704D01*
X200500Y94099D01*
X197498Y93704D01*
X197095Y93537D01*
X196039Y94243D01*
Y98422D01*
X195884Y99202D01*
X195442Y99864D01*
X194780Y100306D01*
X194000Y100461D01*
X193101D01*
X192135Y100653D01*
X191316Y101200D01*
X188074Y104442D01*
X188074Y104442D01*
X187413Y104884D01*
X186632Y105040D01*
X184439D01*
Y111922D01*
X184284Y112702D01*
X183842Y113364D01*
X183181Y113806D01*
X182400Y113961D01*
X179700D01*
X178920Y113806D01*
X178258Y113364D01*
X177816Y112702D01*
X177661Y111922D01*
Y105016D01*
X176998Y104884D01*
X176337Y104442D01*
X175895Y103781D01*
X175739Y103000D01*
Y100148D01*
X175547Y99182D01*
X175000Y98363D01*
X173784Y97148D01*
X173636Y96926D01*
X173460Y96725D01*
X173417Y96598D01*
X173342Y96486D01*
X173290Y96225D01*
X173205Y95972D01*
X173213Y95838D01*
X173187Y95706D01*
X173239Y95444D01*
X173257Y95178D01*
X173316Y95057D01*
X173342Y94925D01*
X173491Y94704D01*
X173608Y94464D01*
X173954Y94015D01*
X174756Y92078D01*
X175047Y89866D01*
Y86179D01*
X166857Y77989D01*
X164922Y78244D01*
X162985Y79046D01*
X161322Y80322D01*
X160046Y81985D01*
X159244Y83922D01*
X158953Y86133D01*
Y89866D01*
X159244Y92078D01*
X160046Y94015D01*
X161322Y95677D01*
X162985Y96954D01*
X164922Y97756D01*
X167000Y98029D01*
X167681Y97940D01*
X167815Y97949D01*
X167947Y97922D01*
X168209Y97974D01*
X168475Y97992D01*
X168595Y98051D01*
X168727Y98077D01*
X168949Y98226D01*
X169188Y98344D01*
X169277Y98445D01*
X169389Y98519D01*
X171064Y100195D01*
X171064Y100195D01*
X171506Y100856D01*
X171661Y101637D01*
Y114800D01*
X171700Y114996D01*
Y115197D01*
X171739Y115394D01*
Y126922D01*
X177661D01*
Y120079D01*
X177816Y119298D01*
X178258Y118637D01*
X178920Y118195D01*
X179700Y118039D01*
X182400D01*
X183181Y118195D01*
X183842Y118637D01*
X184284Y119298D01*
X184439Y120079D01*
Y126922D01*
X190361D01*
Y109539D01*
D02*
G37*
D11*
X73000Y157972D02*
Y177500D01*
X72000Y156972D02*
X73000Y157972D01*
Y177500D02*
X74500D01*
X72000Y66500D02*
X84000Y78500D01*
X72000Y59500D02*
Y66500D01*
X84000Y78500D02*
Y118500D01*
X72000Y130500D02*
X84000Y118500D01*
X72000Y130500D02*
Y137500D01*
Y156972D01*
X673000Y221999D02*
Y223500D01*
X602500Y244000D02*
X616000D01*
X327000Y63500D02*
X330000D01*
X200500Y176999D02*
X201002Y177500D01*
X381000Y25400D02*
Y47500D01*
X382500Y49000D01*
X301000Y68000D02*
Y93247D01*
Y68000D02*
X303500Y65500D01*
X304800D01*
X330750Y45750D02*
X354850D01*
X330000Y45000D02*
X330750Y45750D01*
X354850D02*
X355600Y46500D01*
X660000Y338366D02*
Y358000D01*
X231660Y119213D02*
X234160D01*
X155500Y232000D02*
X157935Y229565D01*
X69500Y292000D02*
X72000Y294500D01*
X157935Y218165D02*
Y229565D01*
X401343Y266000D02*
X402843Y264500D01*
X391000Y266000D02*
X401343D01*
X553000Y334000D02*
X554000Y335000D01*
X576000D01*
X548515Y341000D02*
X586500D01*
X545000Y337485D02*
X548515Y341000D01*
X586500D02*
X587500Y342000D01*
X545000Y328500D02*
Y337485D01*
Y328500D02*
X587500Y286000D01*
X576000Y335000D02*
X603500Y307500D01*
X587500Y342000D02*
Y344000D01*
X603500Y307500D02*
X668500D01*
X183000Y413383D02*
X187200Y408000D01*
X172817Y413383D02*
X183000D01*
X614680Y366522D02*
X651878D01*
X660400Y358000D01*
X212490Y448750D02*
X213360Y447880D01*
X195250Y448750D02*
X212490D01*
X194500Y449500D02*
X195250Y448750D01*
X304800Y25400D02*
Y46500D01*
X393410Y38840D02*
X401500Y46930D01*
Y49000D01*
X411300Y120159D02*
Y153759D01*
X404500Y113359D02*
X411300Y120159D01*
X404500Y99000D02*
Y113359D01*
X401500Y49000D02*
X403000Y50500D01*
Y74700D01*
X404500Y76200D01*
Y78200D02*
Y99000D01*
X387000Y81617D02*
X399083D01*
X400000Y80700D01*
X402000D01*
X404500Y78200D01*
Y76200D02*
Y78200D01*
X382500Y49000D02*
Y66399D01*
X350900Y98000D02*
X382500Y66399D01*
X340157Y93056D02*
X345101Y98000D01*
X340157Y89657D02*
Y93056D01*
X345101Y98000D02*
X350900D01*
X348000Y91000D02*
X355600Y83400D01*
X333000Y82500D02*
X340157Y89657D01*
X330000Y82500D02*
X333000D01*
X355600Y65500D02*
Y83400D01*
X310383Y80117D02*
Y81617D01*
Y80117D02*
X327000Y63500D01*
X209000Y113000D02*
Y121500D01*
X209000Y121500D02*
X209000Y121500D01*
X234160Y113000D02*
Y119213D01*
X197500Y131000D02*
X204500Y124000D01*
X169000Y131000D02*
X197500D01*
X204500Y124000D02*
Y139750D01*
X163342Y136700D02*
X191000Y164358D01*
X147000Y136700D02*
X163342D01*
X162157Y144000D02*
X185000Y166843D01*
X141500Y144000D02*
X162157D01*
X192900Y102500D02*
X209000D01*
X187400Y108000D02*
X192900Y102500D01*
X191000Y170000D02*
X198500Y177500D01*
X191000Y164358D02*
Y170000D01*
X185000Y166843D02*
Y221278D01*
X231660Y119213D02*
X234160Y121713D01*
X157935Y128066D02*
Y129000D01*
Y128066D02*
X162000Y124000D01*
X136600Y139100D02*
X141500Y144000D01*
X136600Y116000D02*
Y139100D01*
X115000Y124000D02*
Y124000D01*
X115000Y124000D02*
X115000Y124000D01*
X115000Y124000D02*
Y133500D01*
X286500Y448000D02*
Y459000D01*
X251840Y458000D02*
X283500Y426340D01*
X245863Y458000D02*
X251840D01*
X234524Y446660D02*
X245863Y458000D01*
X283500Y412000D02*
Y426340D01*
X263500Y482000D02*
X286500Y459000D01*
X263500Y482000D02*
Y484000D01*
X212190Y430050D02*
Y438380D01*
Y430050D02*
X213360Y428880D01*
X192000Y438380D02*
X192383Y438763D01*
Y448750D01*
X193133Y449500D01*
X194500D01*
X167500Y430500D02*
X177749D01*
X180000Y432751D01*
X25000Y452500D02*
X59021D01*
X36617Y459617D02*
X37000Y460000D01*
X32118Y459617D02*
X36617D01*
X25000Y452500D02*
X32118Y459617D01*
X23000Y452500D02*
X25000D01*
X58200Y522000D02*
X58700Y521500D01*
X40000Y522000D02*
X58200D01*
X59021Y452500D02*
X64250Y447270D01*
X261500Y335000D02*
X275000D01*
X259500Y337000D02*
X261500Y335000D01*
X239840Y197160D02*
X240500Y196500D01*
X224660Y197160D02*
X239840D01*
X224000Y196500D02*
X224660Y197160D01*
X171902Y213376D02*
X174000Y211278D01*
Y219840D01*
Y211278D02*
X174402Y210876D01*
X176402Y229876D02*
X185000Y221278D01*
X174000Y230278D02*
X174402Y229876D01*
X176402D01*
X193000Y223000D02*
X195000Y225000D01*
X193000Y218000D02*
Y223000D01*
Y218000D02*
X195500Y215500D01*
X197000D01*
X213500Y218000D02*
X216000Y215500D01*
X213500Y218000D02*
Y220000D01*
X199000Y234500D02*
X213500Y220000D01*
Y213000D02*
X216000Y215500D01*
X213500Y206000D02*
Y213000D01*
X204000Y196500D02*
X213500Y206000D01*
X220980Y226410D02*
Y232000D01*
X218480Y234500D02*
X220980Y232000D01*
X218000Y234500D02*
X218480D01*
X195000D02*
X197000D01*
X199000D01*
X233000Y289500D02*
X233500Y290000D01*
X217000Y289500D02*
X233000D01*
X207500Y299593D02*
Y301001D01*
X204657Y296750D02*
X207500Y299593D01*
X196750Y296750D02*
X204657D01*
X660400Y358000D02*
Y376942D01*
X640500Y396842D02*
X660400Y376942D01*
X640500Y396842D02*
Y412000D01*
X639000Y413500D02*
X640500Y412000D01*
X636000Y413500D02*
X639000D01*
X663001Y126999D02*
X672499D01*
X672500Y127000D01*
X652500Y159000D02*
Y172999D01*
X498729Y151000D02*
X635000D01*
X489228Y141500D02*
X498729Y151000D01*
X476000Y141500D02*
X489228D01*
X486899Y163000D02*
X585000D01*
X587000Y169000D02*
X587343Y168657D01*
X587000Y169000D02*
Y174000D01*
X585000Y163000D02*
X587343Y165343D01*
X450114Y126215D02*
X486899Y163000D01*
X587343Y165343D02*
Y168657D01*
X448700Y175800D02*
X463500Y161000D01*
X448700Y175800D02*
Y201930D01*
X475617Y127247D02*
Y141117D01*
X476000Y141500D01*
X471804Y123434D02*
X474100Y125730D01*
X475617Y127247D01*
X461000Y147000D02*
X474100Y160100D01*
Y201930D01*
X471804Y110304D02*
Y123434D01*
X462500Y101000D02*
X471804Y110304D01*
X462500Y99000D02*
Y101000D01*
X479000Y256500D02*
X485000Y262500D01*
X473000Y256500D02*
X479000D01*
X470500Y254000D02*
X473000Y256500D01*
X470500Y252000D02*
Y254000D01*
X402843Y252657D02*
Y264500D01*
Y252657D02*
X403500Y252000D01*
X587500Y259000D02*
X602500Y244000D01*
X587500Y259000D02*
Y286000D01*
X260000Y230000D02*
Y232000D01*
X251500Y240500D02*
X260000Y232000D01*
X234843Y240500D02*
X251500D01*
X230500Y236157D02*
X234843Y240500D01*
X219657Y236157D02*
X230500D01*
X218000Y234500D02*
X219657Y236157D01*
X196000Y296000D02*
X196750Y296750D01*
X207500Y301001D02*
X215000Y308500D01*
X217000D01*
X204500Y124000D02*
X207000Y121500D01*
X209000D01*
X162000Y124000D02*
X169000Y131000D01*
X72000Y294500D02*
X82000D01*
X69500Y291001D02*
Y292000D01*
X283500Y412000D02*
X284000Y411500D01*
Y389500D02*
Y411500D01*
Y389500D02*
X284500Y389000D01*
X121089Y25400D02*
X139700D01*
X99989Y46500D02*
X121089Y25400D01*
X78000Y46500D02*
X99989D01*
X72000Y52500D02*
X78000Y46500D01*
X72000Y52500D02*
Y59500D01*
X48745Y214000D02*
X60000D01*
X91500Y155000D02*
X113000Y133500D01*
X91500Y155000D02*
Y163500D01*
X134000Y237250D02*
X141250Y244500D01*
X134000Y234500D02*
Y237250D01*
Y234500D02*
X136750Y231750D01*
Y209250D02*
Y231750D01*
X103000Y221500D02*
X111500Y230000D01*
X73000Y221500D02*
X103000D01*
X79491Y245990D02*
X79841Y246340D01*
X74011Y245990D02*
X79491D01*
X71250Y246500D02*
X73500D01*
X74011Y245990D01*
X70500Y247250D02*
X71250Y246500D01*
X60001Y233000D02*
X71500Y221500D01*
X46495Y233000D02*
X60001D01*
X70500Y247250D02*
Y249500D01*
X71500Y221500D02*
X73000D01*
X45495Y234000D02*
X46495Y233000D01*
X66250Y259500D02*
X90040D01*
X51500Y274250D02*
X66250Y259500D01*
X51000Y277000D02*
X51500Y276500D01*
X51122Y276121D02*
X51500Y276500D01*
X44000D02*
X44378Y276121D01*
X51500Y274250D02*
Y276500D01*
X44378Y276121D02*
X51122D01*
X149300Y245990D02*
X149650Y246340D01*
Y257650D01*
X150000Y258000D01*
X141250Y244500D02*
Y257250D01*
X150500Y173000D02*
X155500Y178000D01*
X119500Y142000D02*
X150500Y173000D01*
X124750D02*
X150500D01*
X111500Y232000D02*
X122500D01*
X111500Y232000D02*
X111500Y232000D01*
X111500Y230000D02*
Y232000D01*
X156000Y206000D02*
X167500Y194500D01*
X156000Y206000D02*
Y209000D01*
X167500Y194500D02*
X178000D01*
X157935Y218165D02*
X162724Y213376D01*
X171902D01*
X192500Y237000D02*
X195000Y234500D01*
X192500Y237000D02*
Y242750D01*
X182000Y253250D02*
X192500Y242750D01*
X90000Y165000D02*
X91500Y163500D01*
X113000Y133500D02*
X115000D01*
X117000D01*
X119500Y136000D01*
Y142000D01*
X155500Y178000D02*
X162000D01*
X21995Y168000D02*
X45496D01*
X46495Y169000D01*
X21995Y189000D02*
Y213000D01*
Y168000D02*
Y189000D01*
X23200Y501340D02*
X25400Y499140D01*
X23200Y501340D02*
Y519800D01*
X21000Y522000D02*
X23200Y519800D01*
X233913Y447270D02*
X234524Y446660D01*
X213970Y447270D02*
X233913D01*
X213360Y447880D02*
X213970Y447270D01*
X172000Y414200D02*
X172817Y413383D01*
X117000Y415000D02*
Y415200D01*
X98700Y433500D02*
X117000Y415200D01*
X23000Y433500D02*
X98700D01*
X23000D02*
X25400Y431100D01*
Y412700D02*
Y431100D01*
X28102Y295398D02*
X29000Y294500D01*
X9794Y295398D02*
X28102D01*
X9000Y296192D02*
X9794Y295398D01*
X8300Y287000D02*
X8650Y287350D01*
Y295842D01*
X9000Y296192D01*
X51000Y277000D02*
Y290501D01*
X50500Y291001D02*
X51000Y290501D01*
X198500Y177500D02*
X200500D01*
X224000Y177500D02*
X226000D01*
X228500Y175000D01*
Y160250D02*
Y175000D01*
Y160250D02*
X229250Y159500D01*
X230500D01*
X224000Y177500D02*
X224000Y177500D01*
X201002Y177500D02*
X224000D01*
X200500Y176999D02*
Y177500D01*
X272000Y53500D02*
X275000D01*
X282000Y46500D01*
X304800D01*
X307300Y49000D01*
X312500D01*
X327000Y63500D01*
X310000Y82000D02*
X310383Y81617D01*
X454000Y56000D02*
X457000Y53000D01*
X447500Y56000D02*
X454000D01*
X445000Y58500D02*
X447500Y56000D01*
X457000Y53000D02*
X467500D01*
X476616Y37383D02*
X476998Y37000D01*
X476616Y37383D02*
Y41885D01*
X467500Y51000D02*
X476616Y41885D01*
X467500Y51000D02*
Y53000D01*
X619222Y52778D02*
X620000Y52000D01*
X619222Y52778D02*
Y93005D01*
X643417Y117200D01*
X645700D01*
X653500Y125000D01*
Y127000D01*
X669657Y286000D02*
X682000Y273657D01*
Y232499D02*
Y273657D01*
X673000Y223500D02*
X682000Y232499D01*
X587500Y286000D02*
X669657D01*
X670000Y223500D02*
X673000D01*
X660000Y338366D02*
X673500Y324866D01*
X628500Y227000D02*
Y231500D01*
X616000Y244000D02*
X628500Y231500D01*
X681000Y183843D02*
X682500Y185343D01*
X681000Y157749D02*
Y183843D01*
X682500Y185343D02*
Y195657D01*
X681000Y197157D02*
X682500Y195657D01*
X671500Y148250D02*
X681000Y157749D01*
X673000Y209500D02*
Y221999D01*
X678000D02*
X681000Y218999D01*
X673000Y221999D02*
X678000D01*
X448700Y126215D02*
X450114D01*
X448700Y125730D02*
Y126215D01*
Y120483D02*
Y125730D01*
X681000Y197157D02*
Y218999D01*
X671500Y146000D02*
Y148250D01*
X651000Y181840D02*
Y189500D01*
Y181840D02*
X652500Y180340D01*
X671500Y143750D02*
Y146000D01*
X670750Y143000D02*
X671500Y143750D01*
X667499Y143000D02*
X670750D01*
X653500Y129000D02*
X667499Y143000D01*
X653500Y127000D02*
Y129000D01*
X587500Y344000D02*
X590000Y346500D01*
X591000D01*
X605500Y361000D01*
X90000Y165000D02*
Y168000D01*
X88500Y169500D02*
X90000Y168000D01*
X82500Y169500D02*
X88500D01*
X74500Y177500D02*
X82500Y169500D01*
X203500Y140500D02*
X203750D01*
X204500Y139750D01*
X486500Y53000D02*
Y76200D01*
Y90959D01*
X481000Y96459D02*
X486500Y90959D01*
X481000Y96459D02*
Y97000D01*
X212000Y187000D02*
Y187000D01*
X202500Y196500D02*
X212000Y187000D01*
X216000Y215500D02*
X218000D01*
X200500Y196500D02*
X204000D01*
X182000Y253250D02*
Y258000D01*
Y289907D01*
X187343Y295250D01*
X195250D01*
X196000Y296000D01*
X187400Y108000D02*
Y116000D01*
X174700D02*
X187400D01*
X167000Y88000D02*
Y93247D01*
X173700Y99947D01*
Y115000D01*
X174700Y116000D01*
X354850Y45750D02*
X355600Y45000D01*
Y25400D02*
Y45000D01*
X174000Y230278D02*
Y258000D01*
X136600Y108000D02*
Y115500D01*
Y116000D01*
X135600Y114500D02*
X136600Y115500D01*
X115000Y114500D02*
X135600D01*
X136600Y116000D02*
X149300D01*
X135600Y107000D02*
X136600Y108000D01*
X133200Y107000D02*
X135600D01*
X116200Y90000D02*
X133200Y107000D01*
X116200Y88000D02*
Y90000D01*
X200500Y17500D02*
Y82500D01*
X20000Y97000D02*
X20500Y96500D01*
X50664Y18500D02*
X72000D01*
X42164Y27000D02*
X50664Y18500D01*
X21000Y27000D02*
X42164D01*
X20000Y46466D02*
Y65000D01*
Y46466D02*
X21000Y45466D01*
Y27000D02*
Y45466D01*
X606000Y375202D02*
Y381000D01*
Y375202D02*
X614680Y366522D01*
Y355398D02*
Y366522D01*
X606500Y347218D02*
X614680Y355398D01*
X606500Y342000D02*
Y347218D01*
Y325596D02*
Y342000D01*
Y325596D02*
X608500Y323596D01*
Y307600D02*
Y323596D01*
X673500Y307600D02*
Y324866D01*
X672500Y107604D02*
Y127000D01*
X660400Y95504D02*
X672500Y107604D01*
X660400Y76200D02*
Y95504D01*
X652500Y172999D02*
Y180340D01*
X264160Y496214D02*
Y508000D01*
X263500Y495554D02*
X264160Y496214D01*
X263500Y484000D02*
Y495554D01*
X470500Y249886D02*
Y252000D01*
X451500Y230886D02*
X470500Y249886D01*
X451500Y229000D02*
Y230886D01*
Y216668D02*
Y229000D01*
X448700Y213868D02*
X451500Y216668D01*
X448700Y201930D02*
Y213868D01*
X462500Y90090D02*
Y99000D01*
Y90090D02*
X467500Y85090D01*
Y76200D02*
Y85090D01*
X48745Y179542D02*
Y188000D01*
X46495Y177292D02*
X48745Y179542D01*
X46495Y169000D02*
Y177292D01*
X21995Y234000D02*
X45495D01*
X21995Y213000D02*
Y234000D01*
Y151363D02*
Y168000D01*
X21000Y150368D02*
X21995Y151363D01*
X21000Y134000D02*
Y150368D01*
X207240Y289500D02*
X217000D01*
X205740Y288000D02*
X207240Y289500D01*
X196000Y288000D02*
X205740D01*
X141250Y257250D02*
X142000Y258000D01*
X136750Y209250D02*
X137000Y209000D01*
X244500Y484000D02*
Y497013D01*
X238760Y502753D02*
X244500Y497013D01*
X238760Y502753D02*
Y508000D01*
X232000Y482000D02*
X234000Y484000D01*
X222000Y482000D02*
X232000D01*
X234000Y484000D02*
X244500D01*
X443500Y115283D02*
X448700Y120483D01*
X443500Y99000D02*
Y115283D01*
X470500Y229000D02*
X472300Y227200D01*
Y203730D02*
Y227200D01*
Y203730D02*
X474100Y201930D01*
D12*
X48745Y214000D02*
D03*
Y207500D02*
D03*
Y201000D02*
D03*
Y194500D02*
D03*
Y188000D02*
D03*
D13*
X46495Y233000D02*
D03*
Y169000D02*
D03*
D14*
X21995Y213000D02*
D03*
Y189000D02*
D03*
X245500Y82500D02*
D03*
D15*
X72000Y96500D02*
D03*
Y137500D02*
D03*
Y18500D02*
D03*
Y59500D02*
D03*
D16*
X162000Y178000D02*
D03*
D17*
X187400Y116000D02*
D03*
X174700D02*
D03*
X162000D02*
D03*
X149300D02*
D03*
X136600D02*
D03*
D18*
X194500Y430500D02*
D03*
Y449500D02*
D03*
X167500Y430500D02*
D03*
Y440000D02*
D03*
Y449500D02*
D03*
X230500Y140500D02*
D03*
Y159500D02*
D03*
X203500Y140500D02*
D03*
Y150000D02*
D03*
Y159500D02*
D03*
D19*
X652500Y146000D02*
D03*
X671500D02*
D03*
X652500Y172999D02*
D03*
X662000D02*
D03*
X671500D02*
D03*
X70500Y276500D02*
D03*
X51500D02*
D03*
X70500Y249500D02*
D03*
X61000D02*
D03*
X51500D02*
D03*
D20*
X200500Y196500D02*
D03*
Y177500D02*
D03*
X445000Y77500D02*
D03*
Y58500D02*
D03*
X197000Y215500D02*
D03*
Y234500D02*
D03*
X115000Y133500D02*
D03*
Y114500D02*
D03*
X209000Y121500D02*
D03*
Y102500D02*
D03*
X218000Y215500D02*
D03*
Y234500D02*
D03*
X217000Y308500D02*
D03*
Y289500D02*
D03*
X174402Y229876D02*
D03*
Y210876D02*
D03*
X23000Y433500D02*
D03*
Y452500D02*
D03*
X637001Y470500D02*
D03*
Y451500D02*
D03*
X304800Y46500D02*
D03*
Y65500D02*
D03*
X355600Y46500D02*
D03*
Y65500D02*
D03*
X213360Y447880D02*
D03*
Y428880D02*
D03*
X224000Y177500D02*
D03*
Y196500D02*
D03*
X648750Y209000D02*
D03*
Y190000D02*
D03*
X234160Y102714D02*
D03*
Y121713D02*
D03*
D21*
X486500Y53000D02*
D03*
X467500D02*
D03*
X155450Y227970D02*
D03*
X136450D02*
D03*
X606500Y342000D02*
D03*
X587500D02*
D03*
X467500Y76200D02*
D03*
X486500D02*
D03*
X263500Y484000D02*
D03*
X244500D02*
D03*
X404500Y76200D02*
D03*
X423500D02*
D03*
X241000Y230000D02*
D03*
X260000D02*
D03*
X240500Y337000D02*
D03*
X259500D02*
D03*
X21000Y522000D02*
D03*
X40000D02*
D03*
X382500Y49000D02*
D03*
X401500D02*
D03*
X470500Y229000D02*
D03*
X451500D02*
D03*
X423500Y99000D02*
D03*
X404500D02*
D03*
X443500D02*
D03*
X462500D02*
D03*
X451500Y252000D02*
D03*
X470500D02*
D03*
X422500D02*
D03*
X403500D02*
D03*
X653500Y127000D02*
D03*
X672500D02*
D03*
X49500Y294000D02*
D03*
X68500D02*
D03*
X92500Y232000D02*
D03*
X111500D02*
D03*
D22*
X604808Y243000D02*
D03*
X629192D02*
D03*
D23*
X9000Y296192D02*
D03*
Y271808D02*
D03*
D24*
X250000Y307500D02*
D03*
Y258500D02*
D03*
D25*
X414500Y284000D02*
D03*
X463500D02*
D03*
D26*
X247500Y410000D02*
D03*
X232500D02*
D03*
X248500Y392000D02*
D03*
X233500D02*
D03*
X234524Y446660D02*
D03*
X249523D02*
D03*
X605500Y361000D02*
D03*
X590500D02*
D03*
D27*
X20000Y65000D02*
D03*
Y97000D02*
D03*
D28*
X182000Y258000D02*
D03*
X174000D02*
D03*
X166000D02*
D03*
X158000D02*
D03*
X150000D02*
D03*
X142000D02*
D03*
X134000D02*
D03*
X126000D02*
D03*
Y342000D02*
D03*
X134000D02*
D03*
X142000D02*
D03*
X150000D02*
D03*
X158000D02*
D03*
X166000D02*
D03*
X174000D02*
D03*
X182000D02*
D03*
D29*
X112000Y272000D02*
D03*
Y280000D02*
D03*
Y288000D02*
D03*
Y296000D02*
D03*
Y304000D02*
D03*
Y312000D02*
D03*
Y320000D02*
D03*
Y328000D02*
D03*
X196000D02*
D03*
Y320000D02*
D03*
Y312000D02*
D03*
Y304000D02*
D03*
Y296000D02*
D03*
Y288000D02*
D03*
Y280000D02*
D03*
Y272000D02*
D03*
D30*
X172000Y395200D02*
D03*
Y414200D02*
D03*
X90040Y259500D02*
D03*
Y278500D02*
D03*
X217000Y272000D02*
D03*
Y253000D02*
D03*
X607000Y451500D02*
D03*
Y470500D02*
D03*
X582000Y451500D02*
D03*
Y470500D02*
D03*
X636000Y413500D02*
D03*
Y432500D02*
D03*
X330000Y82500D02*
D03*
Y63500D02*
D03*
Y64000D02*
D03*
Y45000D02*
D03*
X671000Y189500D02*
D03*
Y208500D02*
D03*
X670000Y242500D02*
D03*
Y223500D02*
D03*
X272000Y72500D02*
D03*
Y53500D02*
D03*
X29000Y275500D02*
D03*
Y294500D02*
D03*
X250000Y140500D02*
D03*
Y159500D02*
D03*
X649000Y243500D02*
D03*
Y224500D02*
D03*
D31*
X264500Y412000D02*
D03*
X283500D02*
D03*
X265500Y389000D02*
D03*
X284500D02*
D03*
X135500Y205000D02*
D03*
X154500D02*
D03*
X100500Y357000D02*
D03*
X81500D02*
D03*
X89500Y209000D02*
D03*
X108500D02*
D03*
X89500Y187000D02*
D03*
X108500D02*
D03*
X109000Y165000D02*
D03*
X90000D02*
D03*
X386500Y99000D02*
D03*
X367500D02*
D03*
X609500Y226000D02*
D03*
X628500D02*
D03*
X402500Y229000D02*
D03*
X421500D02*
D03*
X232523Y428000D02*
D03*
X251523D02*
D03*
X606000Y381000D02*
D03*
X587000D02*
D03*
X286500Y92000D02*
D03*
X267500D02*
D03*
X11500Y253000D02*
D03*
X30500D02*
D03*
D32*
X73000Y206500D02*
D03*
Y221500D02*
D03*
Y192500D02*
D03*
Y177500D02*
D03*
D57*
X668500Y262500D02*
D03*
D58*
Y307500D02*
D03*
X603500D02*
D03*
Y262500D02*
D03*
X200500Y82500D02*
D03*
Y17500D02*
D03*
X245500D02*
D03*
D67*
X102000Y520000D02*
D03*
X668000Y511000D02*
D03*
X669000Y20000D02*
D03*
X226000Y43000D02*
D03*
D68*
X256786Y102714D02*
X262500Y97000D01*
X265500D02*
X267500Y95000D01*
X262500Y97000D02*
X265500D01*
X232160Y102714D02*
X256786D01*
X245500Y17500D02*
Y82500D01*
X262556Y72500D02*
X272000D01*
X257556Y77500D02*
X262556Y72500D01*
X248500Y77500D02*
X257556D01*
X539500Y352757D02*
X574244Y387500D01*
X539500Y325989D02*
Y352757D01*
X534500Y360424D02*
X568000Y393924D01*
X534500Y323918D02*
Y360424D01*
X529500Y321847D02*
Y418000D01*
X524500Y318500D02*
Y446300D01*
X519500Y290500D02*
Y465000D01*
X494500Y381500D02*
Y492500D01*
X474000Y361000D02*
X494500Y381500D01*
X482600Y395600D02*
Y508000D01*
X459000Y372000D02*
X482600Y395600D01*
X509000Y328000D02*
Y481600D01*
X574244Y387500D02*
Y423244D01*
X568000Y393924D02*
Y430429D01*
X582071Y444500D02*
X589949D01*
X427000Y361000D02*
X474000D01*
X534500Y323918D02*
X577000Y281418D01*
X499500Y201930D02*
X502000Y204430D01*
Y321000D02*
X509000Y328000D01*
X502000Y204430D02*
Y321000D01*
X519500Y290500D02*
X524900Y285100D01*
X494500Y492500D02*
X508000Y506000D01*
X524500Y446300D02*
X584200Y506000D01*
X604000Y470500D02*
X607000D01*
X602000Y465500D02*
Y468500D01*
X592000Y455500D02*
X602000Y465500D01*
X592000Y446550D02*
Y455500D01*
X519500Y465000D02*
X558800Y504300D01*
X589949Y444500D02*
X592000Y446550D01*
X529500Y321847D02*
X572000Y279347D01*
X574244Y423244D02*
X577000Y426000D01*
X602000Y468500D02*
X604000Y470500D01*
X568000Y430429D02*
X582071Y444500D01*
X509000Y481600D02*
X533400Y506000D01*
X539500Y325989D02*
X582000Y283489D01*
X524500Y318500D02*
X550300Y292700D01*
X529500Y418000D02*
X577000Y465500D01*
X572000Y252579D02*
Y279347D01*
X577000Y254650D02*
Y281418D01*
X582000Y256722D02*
Y283489D01*
X550300Y201930D02*
Y292700D01*
X577000Y254650D02*
X580700Y250950D01*
X582000Y256722D02*
X585700Y253021D01*
X572000Y252579D02*
X575700Y248879D01*
X384500Y318500D02*
X427000Y361000D01*
X379500Y338500D02*
X413000Y372000D01*
X384500Y215930D02*
Y318500D01*
X372500Y203930D02*
X384500Y215930D01*
X379500Y236330D02*
Y338500D01*
X347100Y203930D02*
X379500Y236330D01*
X374000Y250665D02*
Y359000D01*
X411000Y396000D01*
X342335Y219000D02*
X374000Y250665D01*
X124000Y470000D02*
X193623D01*
X82860Y511140D02*
X124000Y470000D01*
X193623D02*
X224860Y501236D01*
X199195Y468500D02*
X256189D01*
X195695Y465000D02*
X199195Y468500D01*
X159197Y465000D02*
X195695D01*
X159197Y465000D02*
X159197Y465000D01*
X121929Y465000D02*
X159197D01*
X101189Y485740D02*
X121929Y465000D01*
X45829Y485740D02*
X101189D01*
X289000Y104000D02*
X365500D01*
X274800Y118200D02*
X289000Y104000D01*
X367500Y99000D02*
Y102000D01*
X365500Y104000D02*
X367500Y102000D01*
X219000Y115722D02*
Y137700D01*
Y115722D02*
X224004Y110718D01*
X224156D01*
X232160Y102714D01*
X209950Y146750D02*
X219000Y137700D01*
X62800Y511140D02*
X82860D01*
X50800Y499140D02*
X62800Y511140D01*
X290849Y435500D02*
X298000Y442651D01*
X288778Y440500D02*
X293000Y444722D01*
Y484071D01*
X293426Y484497D01*
X298000Y442651D02*
Y482000D01*
X304904Y488904D01*
X256189Y468500D02*
X284189Y440500D01*
X288778D01*
X282118Y435500D02*
X290849D01*
X254118Y463500D02*
X282118Y435500D01*
X224785Y463500D02*
X254118D01*
X167500Y449850D02*
X182150D01*
X221285Y460000D02*
X224785Y463500D01*
X192300Y460000D02*
X221285D01*
X182150Y449850D02*
X192300Y460000D01*
X293426Y484497D02*
Y487426D01*
X294000Y488000D01*
X202243Y424047D02*
X205690Y420600D01*
X232720Y428800D02*
Y431800D01*
X205690Y420600D02*
X224520D01*
X232720Y428800D01*
X167500Y440000D02*
Y449500D01*
X194500Y430849D02*
X196750D01*
X202243Y425357D01*
Y424047D02*
Y425357D01*
X161249Y438299D02*
X167500D01*
X157450Y434500D02*
X161249Y438299D01*
X123745Y434500D02*
X157450D01*
X119245Y439000D02*
X123745Y434500D01*
X85540Y439000D02*
X119245D01*
X50800Y473740D02*
X85540Y439000D01*
X147000Y198000D02*
Y238130D01*
X145000Y196000D02*
X147000Y198000D01*
X156243Y238130D02*
X158000Y239888D01*
X147000Y238130D02*
X156243D01*
X250670Y202500D02*
X255227D01*
X244000Y209170D02*
X250670Y202500D01*
X244000Y209170D02*
Y227000D01*
X255227Y202500D02*
X265950Y213223D01*
X250000Y187096D02*
X265500Y202596D01*
X274800Y118200D02*
Y242800D01*
X279800Y123967D02*
Y233300D01*
X284800Y190030D02*
X287830Y187000D01*
X284800Y190030D02*
Y221800D01*
X287830Y187000D02*
X345343D01*
X230250Y282250D02*
X234942D01*
X240000Y287308D01*
Y297500D01*
X250000Y307500D01*
X220000Y272000D02*
X230250Y282250D01*
X653000Y208500D02*
X660000Y201500D01*
Y175000D02*
Y201500D01*
X498006Y142500D02*
X651250D01*
X491507Y136000D02*
X498006Y142500D01*
X652500Y143750D02*
Y148250D01*
X651250Y142500D02*
X652500Y143750D01*
X491506Y136000D02*
X491507D01*
X488000Y132493D02*
X491506Y136000D01*
X241000Y230000D02*
X244000Y227000D01*
X265950Y213223D02*
Y220000D01*
X268000Y222050D01*
X488000Y103000D02*
Y132493D01*
X463500Y266000D02*
Y284000D01*
X451500Y254000D02*
X463500Y266000D01*
X422500Y252000D02*
Y276000D01*
X414500Y284000D02*
X422500Y276000D01*
Y250000D02*
Y252000D01*
X533400Y506000D02*
Y508000D01*
X558800Y504300D02*
Y508000D01*
X524900Y201930D02*
Y285100D01*
X585700Y250935D02*
Y253021D01*
Y250935D02*
X601392Y235243D01*
X244500Y253000D02*
X256000D01*
X268000Y241000D01*
Y222050D02*
Y241000D01*
X76409Y326600D02*
X79841D01*
X70301Y237000D02*
X89500D01*
X92500Y234000D01*
Y232000D02*
Y234000D01*
Y232000D02*
X95500Y235000D01*
X73000Y206500D02*
X87500D01*
X86550Y175000D02*
X102000D01*
X81612Y179938D02*
X86550Y175000D01*
X81612Y179938D02*
Y181337D01*
X76950Y186000D02*
X81612Y181337D01*
X67050Y186000D02*
X76950D01*
X49245Y207000D02*
X72500D01*
X59050Y194000D02*
X67050Y186000D01*
X73500Y192000D02*
X87500D01*
X63000Y201000D02*
X71500Y192500D01*
X48745Y201000D02*
X63000D01*
X49245Y194000D02*
X59050D01*
X95500Y235000D02*
Y249500D01*
X96000Y250000D01*
X64250Y243051D02*
X70301Y237000D01*
X61000Y247250D02*
X64250Y244000D01*
Y243051D02*
Y244000D01*
X61000Y247250D02*
Y249500D01*
X158000Y239888D02*
Y258000D01*
X166000Y237424D02*
Y258000D01*
X164402Y235826D02*
X166000Y237424D01*
X164402Y221598D02*
Y235826D01*
Y221598D02*
X165000Y221000D01*
X624350Y176400D02*
Y204080D01*
X250110Y433410D02*
Y450890D01*
Y433410D02*
X251720Y431800D01*
X248500Y452500D02*
X250110Y450890D01*
X159500Y386498D02*
Y409100D01*
X148000Y420600D02*
X159500Y409100D01*
X146000Y420600D02*
X148000D01*
X154302Y381300D02*
X159500Y386498D01*
X38800Y400700D02*
X50800Y412700D01*
X38800Y382330D02*
Y400700D01*
Y382330D02*
X62129Y359000D01*
X25400Y387300D02*
X58700Y354000D01*
X32500Y250750D02*
X50250D01*
X30500Y252750D02*
X32500Y250750D01*
X50250D02*
X51500Y249500D01*
X30500Y252750D02*
Y253000D01*
X99540Y272000D02*
X112000D01*
X93040Y278500D02*
X99540Y272000D01*
X90040Y278500D02*
X93040D01*
X70500Y276500D02*
Y277250D01*
X71750Y278500D01*
X90040D01*
X59670Y308500D02*
X85898D01*
X55771Y304600D02*
X59670Y308500D01*
X37400Y304600D02*
X55771D01*
X73855Y313500D02*
X87969D01*
X70755Y316600D02*
X73855Y313500D01*
X80870Y318500D02*
X90040D01*
X79570Y319800D02*
X80870Y318500D01*
X82941Y323500D02*
X97179D01*
X79841Y326600D02*
X82941Y323500D01*
X85898Y308500D02*
X92398Y302000D01*
X97179Y323500D02*
X100679Y320000D01*
X87969Y313500D02*
X94469Y307000D01*
X70754Y316600D02*
X70755D01*
X25400D02*
X37400Y304600D01*
X90040Y318500D02*
X96540Y312000D01*
X76637Y319800D02*
X79570D01*
X86322Y328500D02*
X111500D01*
X112000Y328000D01*
X77499Y337322D02*
X86322Y328500D01*
X92951Y302000D02*
X98951Y296000D01*
X92398Y302000D02*
X92951D01*
X99521Y304000D02*
X112000D01*
X96521Y307000D02*
X99521Y304000D01*
X94469Y307000D02*
X96521D01*
X96540Y312000D02*
X112000D01*
X74836Y321601D02*
X76637Y319800D01*
X62771Y321601D02*
X74836D01*
X98951Y296000D02*
X112000D01*
X613500Y48900D02*
X635000Y27400D01*
X613500Y48900D02*
Y110730D01*
X626500Y123730D01*
X635000Y25400D02*
Y27400D01*
X626500Y123730D02*
Y125730D01*
X100679Y320000D02*
X112000D01*
X609500Y226000D02*
Y229000D01*
X601392Y235243D02*
X603258D01*
X609500Y229000D01*
X608500Y260500D02*
X671500D01*
Y262600D02*
X672499Y261600D01*
X672500Y259500D02*
Y261600D01*
X671500Y260500D02*
X672499Y259500D01*
Y260600D02*
X672500Y260600D01*
Y259500D02*
X673500Y260500D01*
X671500Y189000D02*
X672500Y188000D01*
X671000Y189500D02*
X671500Y189000D01*
X670500Y188000D02*
X671500Y189000D01*
X670500Y188000D02*
Y190500D01*
X672500Y172999D02*
Y188000D01*
X651000Y208500D02*
Y224500D01*
X660000Y175000D02*
X662000Y172999D01*
X575700Y201930D02*
Y248879D01*
X580700Y236300D02*
Y250950D01*
X649000Y243500D02*
X672500D01*
X580700Y236300D02*
X601100Y215900D01*
Y201930D02*
Y215900D01*
X612500Y223000D02*
X620000Y215500D01*
X673000Y162500D02*
Y171500D01*
X670000Y159500D02*
X673000Y162500D01*
X60750Y354000D02*
X77428Y337322D01*
X77499D01*
X62129Y359000D02*
X62892D01*
X87273Y334620D01*
X104360D01*
X106410Y336670D02*
X124750D01*
X104360Y334620D02*
X106410Y336670D01*
X126000Y337921D02*
Y342000D01*
X124750Y336670D02*
X126000Y337921D01*
X76200Y387300D02*
X134223D01*
X142123Y395200D01*
X146000D01*
X95000Y378000D02*
Y378371D01*
X97929Y381300D01*
X154302D01*
X100200Y369800D02*
X146000D01*
X102500Y353000D02*
X130199D01*
X100500Y355000D02*
X102500Y353000D01*
X100500Y355000D02*
Y357000D01*
X100000Y370000D02*
X100200Y369800D01*
X109000Y165000D02*
Y168000D01*
X102000Y175000D02*
X109000Y168000D01*
X48745Y194500D02*
X49245Y194000D01*
X71500Y192500D02*
X73000D01*
X250000Y159500D02*
Y187096D01*
X230500Y140500D02*
X250000D01*
X279800Y123967D02*
X292766Y111000D01*
X279800Y233300D02*
X297000Y250500D01*
X209000Y146750D02*
X209950D01*
X205750Y150000D02*
X209000Y146750D01*
X203500Y150000D02*
X205750D01*
X203500D02*
Y159500D01*
X267500Y92000D02*
Y95000D01*
X292766Y111000D02*
X359770D01*
X48745Y207500D02*
X49245Y207000D01*
X72500D02*
X73000Y206500D01*
Y192500D02*
X73500Y192000D01*
X240500Y327000D02*
Y337000D01*
Y327000D02*
X250000Y317500D01*
Y307500D02*
Y317500D01*
X423300Y112214D02*
Y125730D01*
Y112214D02*
X423500Y112014D01*
Y99000D02*
Y112014D01*
Y76200D02*
Y99000D01*
X434878Y77500D02*
X445000D01*
X433578Y76200D02*
X434878Y77500D01*
X423500Y76200D02*
X433578D01*
X397900Y117826D02*
Y125730D01*
X386500Y106426D02*
X397900Y117826D01*
X386500Y99000D02*
Y106426D01*
X286500Y89430D02*
Y92000D01*
X272000Y74930D02*
X286500Y89430D01*
X272000Y72500D02*
Y74930D01*
X671000Y189500D02*
X672000D01*
X671500Y172999D02*
X672500D01*
X172000Y395200D02*
X191200D01*
X169000D02*
X172000D01*
X120000Y192000D02*
X123000Y195000D01*
X110500Y192000D02*
X120000D01*
X108500Y190000D02*
X110500Y192000D01*
X108500Y187000D02*
Y190000D01*
X122500Y209000D02*
X123000Y208500D01*
X108500Y209000D02*
X122500D01*
X87500Y192000D02*
X89500Y190000D01*
Y187000D02*
Y190000D01*
X87500Y206500D02*
X89500Y208500D01*
Y209000D01*
X51500Y249500D02*
X61000D01*
X9000Y271808D02*
X9635D01*
X13327Y275500D01*
X29000D01*
X9000Y271808D02*
X10250Y270558D01*
Y254250D02*
Y270558D01*
Y254250D02*
X11500Y253000D01*
X211475Y369975D02*
X233500Y392000D01*
X194775Y369975D02*
X211475D01*
X175250Y350449D02*
X194775Y369975D01*
X175250Y343250D02*
Y350449D01*
X223571Y375000D02*
X293929D01*
X196571Y348000D02*
X223571Y375000D01*
X183250Y348000D02*
X196571D01*
X182000Y346750D02*
X183250Y348000D01*
X182000Y342000D02*
Y346750D01*
X232000Y352000D02*
X278000D01*
X208000Y328000D02*
X232000Y352000D01*
X196000Y328000D02*
X208000D01*
X293929Y375000D02*
X296300Y377371D01*
X150000Y355536D02*
X167000Y372537D01*
X150000Y342000D02*
Y355536D01*
X130199Y353000D02*
X132250Y350950D01*
Y348500D02*
Y350950D01*
Y348500D02*
X134000Y346750D01*
Y342000D02*
Y346750D01*
X167000Y372537D02*
Y393200D01*
X191200Y395200D02*
X197000Y401000D01*
X167000Y393200D02*
X169000Y395200D01*
X230000Y407500D02*
X232500Y410000D01*
X224301Y407500D02*
X230000D01*
X167250Y350449D02*
X224301Y407500D01*
X167250Y343250D02*
Y350449D01*
X166000Y342000D02*
X167250Y343250D01*
X174000Y342000D02*
X175250Y343250D01*
X265500Y389000D02*
Y390000D01*
X263500Y392000D02*
X265500Y390000D01*
X248500Y392000D02*
X263500D01*
X262500Y410000D02*
X264500Y412000D01*
X247500Y410000D02*
X262500D01*
X244500Y253000D02*
X250000Y258500D01*
X214000Y253000D02*
X217000D01*
X212000Y255000D02*
X214000Y253000D01*
X212000Y255000D02*
Y260750D01*
X200750Y272000D02*
X212000Y260750D01*
X196000Y272000D02*
X200750D01*
X217000Y253000D02*
X244500D01*
X217000Y272000D02*
X220000D01*
X208000Y280000D02*
X209879Y278121D01*
Y276121D02*
Y278121D01*
Y276121D02*
X214000Y272000D01*
X217000D01*
X196000Y280000D02*
X208000D01*
X81500Y357000D02*
Y360000D01*
X54200Y387300D02*
X81500Y360000D01*
X50800Y387300D02*
X54200D01*
X58700Y354000D02*
X60750D01*
X55771Y328600D02*
X62771Y321601D01*
X68009Y335000D02*
X76409Y326600D01*
X50800Y316600D02*
X70754D01*
X57800Y335000D02*
X68009D01*
X50800Y342000D02*
X57800Y335000D01*
X38800Y328600D02*
X55771D01*
X25400Y342000D02*
X38800Y328600D01*
X224860Y501236D02*
Y512363D01*
X296300Y377371D02*
Y422960D01*
X319000Y393000D02*
Y428000D01*
X278000Y352000D02*
X319000Y393000D01*
X329000Y395929D02*
Y464808D01*
X287830Y354759D02*
X329000Y395929D01*
X336000Y389000D02*
Y476000D01*
X297000Y350000D02*
X336000Y389000D01*
X349000Y384600D02*
Y499360D01*
X309000Y344600D02*
X349000Y384600D01*
X336000Y236000D02*
Y364529D01*
X391160Y412618D02*
Y508000D01*
X348000Y369458D02*
X391160Y412618D01*
X348000Y238808D02*
Y369458D01*
X416560Y423800D02*
Y508000D01*
X359000Y366240D02*
X416560Y423800D01*
X359000Y242737D02*
Y366240D01*
X450000Y403000D02*
Y495522D01*
X443000Y396000D02*
X450000Y403000D01*
X411000Y396000D02*
X443000D01*
X413000Y372000D02*
X459000D01*
X304904Y488904D02*
X329000Y464808D01*
X289560Y504248D02*
X304904Y488904D01*
X315000Y489000D02*
X328500Y475500D01*
X314960Y506000D02*
X336000Y484960D01*
X335500Y475500D02*
X336000Y476000D01*
X328500Y475500D02*
X335500D01*
X314960Y506000D02*
Y508000D01*
X314000Y489000D02*
X315000D01*
X336000Y476000D02*
Y484960D01*
X328860Y521500D02*
X340360Y510000D01*
X233997Y521500D02*
X328860D01*
X224860Y512363D02*
X233997Y521500D01*
X289560Y504248D02*
Y508000D01*
X40830Y480740D02*
X45829Y485740D01*
X32400Y480740D02*
X40830D01*
X25400Y473740D02*
X32400Y480740D01*
X340360Y508000D02*
Y510000D01*
X651000Y208500D02*
X653000D01*
X588750Y362750D02*
X590500Y361000D01*
X588750Y362750D02*
Y379250D01*
X587000Y381000D02*
X588750Y379250D01*
X620000Y208430D02*
X624350Y204080D01*
Y176400D02*
X652500Y148250D01*
X624350Y204080D02*
X626500Y201930D01*
X499500Y125730D02*
X513000Y112230D01*
X488000Y103000D02*
X503000Y88000D01*
Y49000D02*
Y88000D01*
X491500Y37500D02*
X503000Y49000D01*
X513000Y30400D02*
Y112230D01*
X508000Y25400D02*
X513000Y30400D01*
X491500Y29000D02*
Y37500D01*
X474400Y11900D02*
X491500Y29000D01*
X341700Y11900D02*
X474400D01*
X330200Y23400D02*
X341700Y11900D01*
X330200Y23400D02*
Y25400D01*
X554000Y32878D02*
Y122030D01*
X524900Y123052D02*
X533400Y114552D01*
Y25400D02*
Y114552D01*
X524900Y123052D02*
Y125730D01*
X558800Y25400D02*
Y28078D01*
X554000Y32878D02*
X558800Y28078D01*
X550300Y125730D02*
X554000Y122030D01*
X578000Y31600D02*
Y120752D01*
X575700Y123052D02*
Y125730D01*
X578000Y31600D02*
X584200Y25400D01*
X575700Y123052D02*
X578000Y120752D01*
X296300Y422960D02*
X320000Y446660D01*
X580744Y414000D02*
X580944Y414200D01*
X602750D01*
X632051Y443500D01*
X661901D01*
X662000Y443600D01*
X597000Y444500D02*
X604000Y451500D01*
X597000Y444480D02*
Y444500D01*
X589520Y437000D02*
X597000Y444480D01*
X585000Y437000D02*
X589520D01*
X626312Y448500D02*
X634000D01*
X621812Y444000D02*
X626312Y448500D01*
X621000Y444000D02*
X621812D01*
X634000Y448500D02*
X637001Y451500D01*
X650813Y420687D02*
X659513D01*
X639001Y432500D02*
X650813Y420687D01*
X309000Y246000D02*
Y344600D01*
X297000Y250500D02*
Y350000D01*
X287830Y255830D02*
Y354759D01*
X560000Y427000D02*
Y432500D01*
X579000Y451500D01*
X582000D01*
X659513Y420687D02*
X662000Y418200D01*
X636000Y432500D02*
X639001D01*
X660500Y470500D02*
X662000Y469000D01*
X637001Y470500D02*
X660500D01*
X274800Y242800D02*
X287830Y255830D01*
X284800Y221800D02*
X309000Y246000D01*
X354000Y392858D02*
X365760Y404618D01*
X354000Y382529D02*
Y392858D01*
X336000Y364529D02*
X354000Y382529D01*
X340263Y224000D02*
X359000Y242737D01*
X338192Y229000D02*
X348000Y238808D01*
X365760Y404618D02*
Y508000D01*
X340360D02*
X349000Y499360D01*
X336770Y219000D02*
X342335D01*
X316370Y224000D02*
X340263D01*
X308000Y229000D02*
X338192D01*
X604000Y451500D02*
X607000D01*
X648750Y243750D02*
X649000Y243500D01*
X629442Y243750D02*
X648750D01*
X629192Y244000D02*
X629442Y243750D01*
X620000Y208430D02*
Y215500D01*
X612500Y223000D02*
Y226000D01*
X672500Y243500D02*
Y259500D01*
X321700Y127730D02*
X335000Y141030D01*
X321700Y125730D02*
Y127730D01*
X335000Y141030D02*
Y178000D01*
X296300Y203930D02*
X316370Y224000D01*
X296300Y201930D02*
Y203930D01*
X321700D02*
X336770Y219000D01*
X321700Y201930D02*
Y203930D01*
X347100Y201930D02*
Y203930D01*
X372500Y201930D02*
Y203930D01*
X296300Y127730D02*
X307000Y138430D01*
X296300Y125730D02*
Y127730D01*
X307000Y138430D02*
Y179000D01*
X345343Y187000D02*
X347100Y185243D01*
X421500Y232000D02*
X436500Y247000D01*
X402500Y232000D02*
X417500Y247000D01*
X347100Y125730D02*
Y185243D01*
X359770Y111000D02*
X372500Y123730D01*
Y125730D01*
X601100Y36578D02*
Y125730D01*
Y36578D02*
X609600Y28078D01*
Y25400D02*
Y28078D01*
X508000Y506000D02*
Y508000D01*
X421500Y229000D02*
X422400Y228100D01*
Y202830D02*
Y228100D01*
Y202830D02*
X423300Y201930D01*
X421500Y229000D02*
Y232000D01*
X436500Y247000D02*
X448500D01*
X451500Y250000D01*
Y252000D01*
Y254000D01*
X419500Y247000D02*
X422500Y250000D01*
X417500Y247000D02*
X419500D01*
X402500Y229000D02*
Y232000D01*
X400388Y215887D02*
X402500Y218000D01*
X400388Y204418D02*
Y215887D01*
X397900Y201930D02*
X400388Y204418D01*
X402500Y218000D02*
Y229000D01*
X450000Y495522D02*
X457200Y502722D01*
Y508000D01*
X584200Y506000D02*
Y508000D01*
X582000Y478500D02*
X609600Y506100D01*
Y508000D01*
X582000Y470500D02*
Y478500D01*
X577000Y465500D02*
Y468500D01*
X579000Y470500D01*
X582000D01*
X607000Y478500D02*
X617500Y489000D01*
X618000D01*
X635000Y506000D01*
Y508000D01*
X607000Y470500D02*
Y478500D01*
D69*
X20500Y96500D02*
X72000D01*
X60000Y214000D02*
Y223000D01*
X60000Y214000D02*
X60000Y214000D01*
X58000Y103000D02*
X66500D01*
X72000Y97500D01*
Y96500D02*
Y97500D01*
X58000Y103000D02*
Y110000D01*
D70*
X279400Y25400D02*
D03*
X116200Y88000D02*
D03*
X416560Y508000D02*
D03*
X635000D02*
D03*
X508000Y25400D02*
D03*
X626500Y201930D02*
D03*
D71*
X304800Y25400D02*
D03*
X330200D02*
D03*
X355600D02*
D03*
X381000D02*
D03*
X406400D02*
D03*
X431800D02*
D03*
X457200D02*
D03*
X141600Y88000D02*
D03*
X167000D02*
D03*
X391160Y508000D02*
D03*
X365760D02*
D03*
X340360D02*
D03*
X314960D02*
D03*
X289560D02*
D03*
X264160D02*
D03*
X238760D02*
D03*
X213360D02*
D03*
X187960D02*
D03*
X609600D02*
D03*
X584200D02*
D03*
X558800D02*
D03*
X533400D02*
D03*
X508000D02*
D03*
X482600D02*
D03*
X457200D02*
D03*
X533400Y25400D02*
D03*
X558800D02*
D03*
X584200D02*
D03*
X609600D02*
D03*
X635000D02*
D03*
X296300Y125730D02*
D03*
X321700D02*
D03*
X347100D02*
D03*
X372500D02*
D03*
X397900D02*
D03*
X423300D02*
D03*
X448700D02*
D03*
X474100D02*
D03*
X499500D02*
D03*
X524900D02*
D03*
X550300D02*
D03*
X575700D02*
D03*
X601100D02*
D03*
X626500D02*
D03*
X296300Y201930D02*
D03*
X321700D02*
D03*
X347100D02*
D03*
X372500D02*
D03*
X397900D02*
D03*
X423300D02*
D03*
X448700D02*
D03*
X474100D02*
D03*
X499500D02*
D03*
X524900D02*
D03*
X550300D02*
D03*
X575700D02*
D03*
X601100D02*
D03*
D72*
X25400Y387300D02*
D03*
X50800Y342000D02*
D03*
X25400Y473740D02*
D03*
D73*
X50800Y387300D02*
D03*
X76200D02*
D03*
X25400Y412700D02*
D03*
X50800D02*
D03*
X76200D02*
D03*
X25400Y342000D02*
D03*
X50800Y316600D02*
D03*
X25400D02*
D03*
X76200Y499140D02*
D03*
X50800D02*
D03*
X25400D02*
D03*
X76200Y473740D02*
D03*
X50800D02*
D03*
D74*
X21995Y234000D02*
D03*
Y168000D02*
D03*
D75*
X21000Y134000D02*
D03*
Y27000D02*
D03*
D76*
X152400Y508000D02*
D03*
D77*
X146000Y446000D02*
D03*
X662000Y469000D02*
D03*
D78*
X146000Y420600D02*
D03*
Y395200D02*
D03*
Y369800D02*
D03*
X662000Y418200D02*
D03*
Y443600D02*
D03*
D79*
X660400Y76200D02*
D03*
X139700Y25400D02*
D03*
X660400Y358000D02*
D03*
D80*
X553000Y334000D02*
D03*
X391000Y266000D02*
D03*
X485000Y262500D02*
D03*
X187200Y408000D02*
D03*
X393410Y38840D02*
D03*
X413000Y156000D02*
D03*
X387000Y81617D02*
D03*
X348000Y91000D02*
D03*
X301000Y93247D02*
D03*
X209000Y113000D02*
D03*
X234160D02*
D03*
X157935Y129000D02*
D03*
X115000Y124000D02*
D03*
X286500Y448000D02*
D03*
X212190Y438380D02*
D03*
X192000D02*
D03*
X180000Y432751D02*
D03*
X37000Y460000D02*
D03*
X58700Y521500D02*
D03*
X64250Y447270D02*
D03*
X275000Y335000D02*
D03*
X240500Y196500D02*
D03*
X174000Y219840D02*
D03*
X195000Y225000D02*
D03*
X220980Y226410D02*
D03*
X233500Y290000D02*
D03*
X663001Y126999D02*
D03*
X652500Y159000D02*
D03*
X635000Y151000D02*
D03*
X476000Y141500D02*
D03*
X463500Y161000D02*
D03*
X82000Y294500D02*
D03*
X79841Y246340D02*
D03*
X149300Y245990D02*
D03*
X124750Y173000D02*
D03*
X122500Y232000D02*
D03*
X178000Y194500D02*
D03*
X145000Y196000D02*
D03*
X165000Y221000D02*
D03*
X117000Y415000D02*
D03*
X8300Y287000D02*
D03*
X44000Y276500D02*
D03*
X147000Y136700D02*
D03*
X310000Y82000D02*
D03*
X476998Y37000D02*
D03*
X620000Y52000D02*
D03*
X79029Y326600D02*
D03*
X95000Y378000D02*
D03*
X96000Y250000D02*
D03*
X100000Y370000D02*
D03*
X265500Y202596D02*
D03*
X481000Y97000D02*
D03*
X461000Y147000D02*
D03*
X212000Y187000D02*
D03*
X58000Y110000D02*
D03*
Y103000D02*
D03*
X60000Y214000D02*
D03*
Y223000D02*
D03*
X123000Y195000D02*
D03*
Y208500D02*
D03*
X314000Y489000D02*
D03*
X294000Y488000D02*
D03*
X577000Y426000D02*
D03*
X320000Y446660D02*
D03*
X222000Y482000D02*
D03*
X587000Y174000D02*
D03*
X197000Y401000D02*
D03*
X580744Y414000D02*
D03*
X319000Y428000D02*
D03*
X560000Y427000D02*
D03*
X585000Y437000D02*
D03*
X621000Y444000D02*
D03*
X670000Y159500D02*
D03*
X335000Y178000D02*
D03*
X336000Y236000D02*
D03*
X307000Y179000D02*
D03*
X308000Y229000D02*
D03*
M02*
