G04*
G04 #@! TF.GenerationSoftware,Altium Limited,Altium Designer,19.0.15 (446)*
G04*
G04 Layer_Color=8421504*
%FSLAX44Y44*%
%MOMM*%
G71*
G01*
G75*
%ADD12R,1.3500X0.4000*%
%ADD13R,1.4000X1.6000*%
%ADD14R,1.9000X1.9000*%
%ADD15R,1.6000X3.0000*%
%ADD16R,3.5000X2.2000*%
%ADD17R,0.6000X2.2000*%
%ADD18R,1.0000X0.5500*%
%ADD19R,0.5500X1.0000*%
%ADD20R,1.3000X0.9000*%
%ADD21R,0.9000X1.3000*%
%ADD22R,0.5588X0.6858*%
%ADD23R,0.6858X0.5588*%
%ADD24R,2.6000X2.5000*%
%ADD25R,2.5000X2.6000*%
%ADD26R,0.8000X0.8000*%
%ADD27R,2.7000X2.0000*%
%ADD28R,0.5500X1.5000*%
%ADD29R,1.5000X0.5500*%
%ADD30R,1.3000X0.7000*%
%ADD31R,0.7000X1.3000*%
%ADD32R,0.9000X0.6000*%
D12*
X48745Y214000D02*
D03*
Y207500D02*
D03*
Y201000D02*
D03*
Y194500D02*
D03*
Y188000D02*
D03*
D13*
X46495Y233000D02*
D03*
Y169000D02*
D03*
D14*
X21995Y213000D02*
D03*
Y189000D02*
D03*
D15*
X72000Y96500D02*
D03*
Y137500D02*
D03*
Y18500D02*
D03*
Y59500D02*
D03*
D16*
X162000Y178000D02*
D03*
D17*
X187400Y116000D02*
D03*
X174700D02*
D03*
X162000D02*
D03*
X149300D02*
D03*
X136600D02*
D03*
D18*
X194500Y430500D02*
D03*
Y449500D02*
D03*
X167500Y430500D02*
D03*
Y440000D02*
D03*
Y449500D02*
D03*
X230500Y140500D02*
D03*
Y159500D02*
D03*
X203500Y140500D02*
D03*
Y150000D02*
D03*
Y159500D02*
D03*
D19*
X652500Y146000D02*
D03*
X671500D02*
D03*
X652500Y172999D02*
D03*
X662000D02*
D03*
X671500D02*
D03*
X70500Y276500D02*
D03*
X51500D02*
D03*
X70500Y249500D02*
D03*
X61000D02*
D03*
X51500D02*
D03*
D20*
X200500Y196500D02*
D03*
Y177500D02*
D03*
X445000Y77500D02*
D03*
Y58500D02*
D03*
X197000Y215500D02*
D03*
Y234500D02*
D03*
X115000Y133500D02*
D03*
Y114500D02*
D03*
X209000Y121500D02*
D03*
Y102500D02*
D03*
X218000Y215500D02*
D03*
Y234500D02*
D03*
X217000Y308500D02*
D03*
Y289500D02*
D03*
X174402Y229876D02*
D03*
Y210876D02*
D03*
X23000Y433500D02*
D03*
Y452500D02*
D03*
X637001Y470500D02*
D03*
Y451500D02*
D03*
X304800Y46500D02*
D03*
Y65500D02*
D03*
X355600Y46500D02*
D03*
Y65500D02*
D03*
X213360Y447880D02*
D03*
Y428880D02*
D03*
X224000Y177500D02*
D03*
Y196500D02*
D03*
X648750Y209000D02*
D03*
Y190000D02*
D03*
X234160Y102714D02*
D03*
Y121713D02*
D03*
D21*
X486500Y53000D02*
D03*
X467500D02*
D03*
X155450Y227970D02*
D03*
X136450D02*
D03*
X606500Y342000D02*
D03*
X587500D02*
D03*
X467500Y76200D02*
D03*
X486500D02*
D03*
X263500Y484000D02*
D03*
X244500D02*
D03*
X404500Y76200D02*
D03*
X423500D02*
D03*
X241000Y230000D02*
D03*
X260000D02*
D03*
X240500Y337000D02*
D03*
X259500D02*
D03*
X21000Y522000D02*
D03*
X40000D02*
D03*
X382500Y49000D02*
D03*
X401500D02*
D03*
X470500Y229000D02*
D03*
X451500D02*
D03*
X423500Y99000D02*
D03*
X404500D02*
D03*
X443500D02*
D03*
X462500D02*
D03*
X451500Y252000D02*
D03*
X470500D02*
D03*
X422500D02*
D03*
X403500D02*
D03*
X653500Y127000D02*
D03*
X672500D02*
D03*
X49500Y294000D02*
D03*
X68500D02*
D03*
X92500Y232000D02*
D03*
X111500D02*
D03*
D22*
X604808Y243000D02*
D03*
X629192D02*
D03*
D23*
X9000Y296192D02*
D03*
Y271808D02*
D03*
D24*
X250000Y307500D02*
D03*
Y258500D02*
D03*
D25*
X414500Y284000D02*
D03*
X463500D02*
D03*
D26*
X247500Y410000D02*
D03*
X232500D02*
D03*
X248500Y392000D02*
D03*
X233500D02*
D03*
X234524Y446660D02*
D03*
X249523D02*
D03*
X605500Y361000D02*
D03*
X590500D02*
D03*
D27*
X20000Y65000D02*
D03*
Y97000D02*
D03*
D28*
X182000Y258000D02*
D03*
X174000D02*
D03*
X166000D02*
D03*
X158000D02*
D03*
X150000D02*
D03*
X142000D02*
D03*
X134000D02*
D03*
X126000D02*
D03*
Y342000D02*
D03*
X134000D02*
D03*
X142000D02*
D03*
X150000D02*
D03*
X158000D02*
D03*
X166000D02*
D03*
X174000D02*
D03*
X182000D02*
D03*
D29*
X112000Y272000D02*
D03*
Y280000D02*
D03*
Y288000D02*
D03*
Y296000D02*
D03*
Y304000D02*
D03*
Y312000D02*
D03*
Y320000D02*
D03*
Y328000D02*
D03*
X196000D02*
D03*
Y320000D02*
D03*
Y312000D02*
D03*
Y304000D02*
D03*
Y296000D02*
D03*
Y288000D02*
D03*
Y280000D02*
D03*
Y272000D02*
D03*
D30*
X172000Y395200D02*
D03*
Y414200D02*
D03*
X90040Y259500D02*
D03*
Y278500D02*
D03*
X217000Y272000D02*
D03*
Y253000D02*
D03*
X607000Y451500D02*
D03*
Y470500D02*
D03*
X582000Y451500D02*
D03*
Y470500D02*
D03*
X636000Y413500D02*
D03*
Y432500D02*
D03*
X330000Y82500D02*
D03*
Y63500D02*
D03*
Y64000D02*
D03*
Y45000D02*
D03*
X671000Y189500D02*
D03*
Y208500D02*
D03*
X670000Y242500D02*
D03*
Y223500D02*
D03*
X272000Y72500D02*
D03*
Y53500D02*
D03*
X29000Y275500D02*
D03*
Y294500D02*
D03*
X250000Y140500D02*
D03*
Y159500D02*
D03*
X649000Y243500D02*
D03*
Y224500D02*
D03*
D31*
X264500Y412000D02*
D03*
X283500D02*
D03*
X265500Y389000D02*
D03*
X284500D02*
D03*
X135500Y205000D02*
D03*
X154500D02*
D03*
X100500Y357000D02*
D03*
X81500D02*
D03*
X89500Y209000D02*
D03*
X108500D02*
D03*
X89500Y187000D02*
D03*
X108500D02*
D03*
X109000Y165000D02*
D03*
X90000D02*
D03*
X386500Y99000D02*
D03*
X367500D02*
D03*
X609500Y226000D02*
D03*
X628500D02*
D03*
X402500Y229000D02*
D03*
X421500D02*
D03*
X232523Y428000D02*
D03*
X251523D02*
D03*
X606000Y381000D02*
D03*
X587000D02*
D03*
X286500Y92000D02*
D03*
X267500D02*
D03*
X11500Y253000D02*
D03*
X30500D02*
D03*
D32*
X73000Y206500D02*
D03*
Y221500D02*
D03*
Y192500D02*
D03*
Y177500D02*
D03*
M02*
