M48
;Layer_Color=9474304
;FILE_FORMAT=2:5
INCH,LZ
;TYPE=PLATED
T1F00S00C0.01181
T3F00S00C0.03937
T4F00S00C0.04331
T5F00S00C0.05906
T6F00S00C0.12598
;TYPE=NON_PLATED
T7F00S00C0.12598
%
T01
X0154886Y0015291
X0152362Y0032133
X0137008Y0035827
X013189Y0070079
X0132283Y0092913
X0153937Y0104724
X0190945Y0103347
X018248Y0063386
X0181496Y0057874
X0187402Y0055709
X018937Y0038189
X0187795Y0014567
X0244094Y0020472
X025Y0059449
X025689Y0062598
X026378Y0062795
X0261024Y0049999
X0231102Y0068504
X0162598Y0061417
X0120866Y0070472
X012126Y0090157
X0104528Y0079762
X0094685Y0077362
X0083465Y0073622
X0070079Y0076575
X0068504Y0086551
X0064961Y0087008
X0076772Y0088583
X0087Y0089138
X0091929Y0114173
X005878Y0096846
X0048228Y0091339
X0048425Y0082087
Y0076772
X0057087Y0077165
X0049114Y006811
X0057874Y0053819
X0062179Y0050787
X0045276Y0048819
X0022835Y0043307
Y0040551
X0023622Y0084252
Y0087795
X0031433Y0096984
X0037795Y0098425
X0032283Y0115945
X0017323Y0108858
X0003268Y0112992
X0082284Y0044488
X0092189
X0118504Y0036711
X0122047Y0032283
X0108268Y013189
X0112795Y0176378
X0115748Y0192126
X0123622Y019252
X0087402Y0189764
X0083539Y0172591
X007559
X0070866Y0170374
X0073701Y016063
X0077559Y0157874
X0046063Y0163386
X0037402Y0148819
X003937Y0145669
X0031114Y0128583
X0025295Y0176091
X0014567Y0181102
X002311Y0205315
X0125984Y017585
X0125591Y0168504
X0220472Y016811
X0227165Y0167717
X0228639Y0162992
X0230315Y0172047
X0244488Y0174803
X0217717Y0131496
T03
X0237598Y0103347
Y0121063
X0263189
Y0103347
X0096653Y003248
X0078937
Y000689
X0096653
T04
X013Y001
X014
X015
X016
X017
X018
X02
X021
X022
X023
X024
X025
X0246654Y00495
X0236654
X0226654
X0216654
X0206654
X0196654
X0186654
X0176654
X0166654
X0156654
X0146654
X0136654
X0126654
Y00795
X0136654
X0146654
X0156654
X0166654
X0176654
X0186654
X0196654
X0206654
X0216654
X0226654
X0236654
X0246654
X0116654
Y00495
X012Y001
X011
X0065748Y0034646
X0055748
X0045748
X002Y0124646
X001
Y0134646
X002
Y015248
X001
Y016248
X002
X003
Y015248
X005748Y0155591
Y0165591
Y0175591
Y0145591
X003Y0186512
Y0196512
X002
X001
Y0186512
X002
X0074Y02
X0084
X0094
X0104
X0114
X0124
X0134
X0144
X0154
X0164
X018
X019
X02
X021
X022
X023
X024
X025
X026063Y0184646
Y0174646
Y0164646
T05
X0008268Y001063
Y0052756
T06
X026Y003
X0055Y001
X026Y0140945
T07
X006Y02
M30
